<svg version="1.1" id="Logo_00000152252418857761589150000000798012301435666049_" xmlns:x="ns_extend;" xmlns:i="ns_ai;" xmlns:graph="ns_graphs;" xmlns="http://www.w3.org/2000/svg" xmlns:xlink="http://www.w3.org/1999/xlink" x="0px" y="0px" viewBox="0 0 335.3 335.8" style="enable-background:new 0 0 335.3 335.8;" xml:space="preserve">
 <style type="text/css">
  .st0{fill:#FF4C46;}
	.st1{fill:#FFFFFF;}
	.st2{fill:none;}
 </style>
 <metadata>
  <sfw xmlns="ns_sfw;">
   <slices>
   </slices>
   <sliceSourceBounds bottomLeftOrigin="true" height="500" width="500" x="0" y="-500">
   </sliceSourceBounds>
  </sfw>
 </metadata>
 <g>
  <path class="st0" d="M331.5,46.4l-108.4,9.7c-18.7-10.9-37.3-15.2-57-15.2c-5.2,0-10.5,0.5-15.8,1.4L37.3,0.3
		c-4.5-1.7-7.8,4.3-4,7.2l69.6,53.8c-14.7,9.2-28.5,21-40.5,34.7c-20.9,23.8-46.9,89.3-59.6,123.5C-2.7,234,0,250.3,9.9,262.3
		c23,28,70.9,73.5,162.9,73.5c84.4,0,127-37.8,147-65.6c11.1-15.4,14.3-35,8.9-53.2c-9.2-30.7-28.3-83.9-59.4-120.4
		c-1.1-1.3-2.2-2.6-3.3-3.8l67.5-40C336.8,51,335.2,46.1,331.5,46.4z">
  </path>
 </g>
 <g>
  <path class="st1" d="M218.5,244c-8.1,2.9-26.3,7.2-46.4-3.2c-1-0.5-2,0.8-1.2,1.6c6.4,6.9,17.8,18.9,24.7,24.8
		c1.4,1.2,3.6,1.1,4.9-0.3l19.2-21.2C220.4,244.9,219.6,243.6,218.5,244z">
  </path>
  <path class="st1" d="M293.3,155.8c-10.3-22.2-25.6-43-48.8-45.7c-4.2-0.5-8.4,0.5-12.1,2.6l-25.3,15c-6.3,3.7-14.3,3.2-20-1.3
		l-22-17c-7.4-5.7-15.8-9.9-24.9-12c-37.8-8.9-63.4,10.9-82.7,48.1c-18.5,35.5-8.2,86.5,37.4,98.7c48.1,12.8,79.9-40.6,92.6-58.4
		c2.4-3.4,7.5-3.4,10,0c19.7,26.8,46.3,55.5,74.7,49.8C309.3,228.1,305,180.9,293.3,155.8z M154.2,184.1c-9.2,6.2-21.1,4.8-28.1-5.7
		c-7.1-10.5-3.9-22,5.3-28.2c9.2-6.2,21.1-4.8,28.1,5.7C166.6,166.4,163.4,177.9,154.2,184.1z M252.5,186
		c-9.2,6.2-21.1,4.8-28.1-5.7c-7.1-10.5-3.9-22,5.3-28.2c9.2-6.2,21.1-4.8,28.1,5.7C264.9,168.2,261.8,179.7,252.5,186z">
  </path>
  <path class="st1" d="M196.8,199.6c-1.9-2.2-5.3-2.1-7.2,0.1l-20.2,24c-0.9,1.1-0.7,2.8,0.4,3.7c4.6,3.3,16.1,10.6,27.2,10.6
		c10.3,0,19.6-4,24.1-6.3c1.5-0.7,1.8-2.7,0.7-3.9L196.8,199.6z">
  </path>
 </g>
 <g>
  <rect x="-82.4" y="-82.1" class="st2" width="500" height="500">
  </rect>
 </g>
</svg>