<?xml version="1.0" encoding="iso-8859-1"?>
<!-- Uploaded to: SVG Repo, www.svgrepo.com, Generator: SVG Repo Mixer Tools -->
<svg height="800px" width="800px" version="1.1" id="Layer_1" xmlns="http://www.w3.org/2000/svg" xmlns:xlink="http://www.w3.org/1999/xlink" 
	 viewBox="0 0 512 512" xml:space="preserve">
<circle style="fill:#FF764C;" cx="256" cy="256" r="256"/>
<path style="fill:#FF450C;" d="M358.867,133.598l-220.524,39.081l23.505,23.505l-5.623,3.329l105.379,105.379L234.629,462.92
	l47.738,47.738c119.424-12.217,214.519-106.529,227.981-225.58L358.867,133.598z"/>
<path style="fill:#00447D;" d="M265.723,368.162h-15.515v-62.659c0-11.379,6.827-21.463,17.391-25.688l101.866-40.746
	c4.641-1.857,7.639-6.285,7.639-11.283v-42.748c0-6.701-5.451-12.152-12.152-12.152H138.343v-15.515h226.609
	c15.257,0,27.667,12.412,27.667,27.667v42.748c0,11.38-6.827,21.463-17.391,25.688l-101.866,40.746
	c-4.641,1.857-7.639,6.285-7.639,11.283v62.659H265.723z"/>
<path style="fill:#062964;" d="M364.953,157.372H256.002v15.515h108.951c6.701,0,12.152,5.451,12.152,12.152v42.748
	c0,4.998-2.998,9.426-7.639,11.283L267.6,279.816c-4.698,1.879-8.651,4.922-11.598,8.716v79.631h9.723v-62.659
	c0-4.998,2.998-9.426,7.639-11.283l101.866-40.746c10.564-4.227,17.391-14.31,17.391-25.688v-42.748
	C392.62,169.784,380.207,157.372,364.953,157.372z"/>
<path style="fill:#00447D;" d="M256,288.534c-3.682,4.739-5.792,10.654-5.792,16.972v62.659H256"/>
<path style="fill:#FFFFFF;" d="M342.159,205.219h-171.62c-11.531,0-20.88-9.349-20.88-20.88v-38.257
	c0-11.531,9.349-20.88,20.88-20.88h171.62c11.531,0,20.88,9.349,20.88,20.88v38.259C363.039,195.87,353.69,205.219,342.159,205.219z
	"/>
<path style="fill:#D0D1D3;" d="M342.159,125.202H256v80.017h86.159c11.531,0,20.88-9.349,20.88-20.88v-38.257
	C363.039,134.549,353.69,125.202,342.159,125.202z"/>
<path style="fill:#007699;" d="M264.095,469.114h-15.493c-10.452,0-18.927-8.473-18.927-18.927v-95.51
	c0-10.452,8.473-18.927,18.927-18.927h15.493c10.452,0,18.927,8.473,18.927,18.927v95.51
	C283.022,460.641,274.547,469.114,264.095,469.114z"/>
<path style="fill:#005E8B;" d="M264.095,335.753H256v133.363h8.094c10.452,0,18.927-8.473,18.927-18.927v-95.51
	C283.022,344.226,274.547,335.753,264.095,335.753z"/>
</svg>