<?xml version="1.0" encoding="iso-8859-1"?>
<!-- Uploaded to: SVG Repo, www.svgrepo.com, Generator: SVG Repo Mixer Tools -->
<svg version="1.1" id="Layer_1" xmlns="http://www.w3.org/2000/svg" xmlns:xlink="http://www.w3.org/1999/xlink" 
	 viewBox="0 0 512 512" xml:space="preserve">
<path style="fill:#9BD6FF;" d="M469.401,121.885H256L224.653,309.29L256,485.381h231.164V139.649
	C487.164,129.838,479.211,121.885,469.401,121.885z"/>
<path style="fill:#C4EAFF;" d="M256,121.885H42.599c-9.811,0-17.763,7.953-17.763,17.763v345.733H256V121.885z"/>
<polygon style="fill:#2D64BC;" points="256,169.402 224.653,293.185 256,416.966 439.647,416.966 439.647,169.402 "/>
<rect x="72.349" y="169.399" style="fill:#6499F3;" width="183.16" height="247.568"/>
<path style="fill:#2D64BC;" d="M256,464.483l-20.898,28.012L256,512h238.237c9.811,0,17.763-7.953,17.763-17.763v-29.753H256z"/>
<path style="fill:#6499F3;" d="M256,464.483H0v29.753C0,504.047,7.953,512,17.763,512H256V464.483z"/>
<path style="fill:#FF8E00;" d="M256,0l-31.347,243.005l79.716-20.898c3.699-18.001,12.644-34.088,25.179-46.577l0.006,0.007
	c18.321-18.622,29.624-44.17,29.624-72.357C359.178,46.195,312.985,0,256,0z"/>
<path style="fill:#FFBA00;" d="M256,0c-56.985,0-103.178,46.195-103.178,103.178c0,28.187,11.303,53.735,29.624,72.357l0.006-0.007
	c12.535,12.49,21.48,28.577,25.179,46.577L256,243.004V0z"/>
<polygon style="fill:#FDE09C;" points="320.61,101.449 298.445,79.284 256,121.73 213.554,79.284 191.39,101.449 240.327,150.386 
	240.327,222.107 271.673,222.107 271.673,150.386 "/>
<path style="fill:#E04C00;" d="M235.102,256.362L256,316.001h11.087c16.263,0,29.447-13.183,29.447-29.447v-9.294L235.102,256.362z"
	/>
<g>
	<path style="fill:#FF7D3C;" d="M304.197,222.107H256l-20.898,27.577L256,277.261h48.197c7.76,0,14.051-6.29,14.051-14.051v-27.052
		C318.248,228.397,311.957,222.107,304.197,222.107z"/>
	<path style="fill:#FF7D3C;" d="M256,256.362l-40.535,20.898v9.294c0,16.263,13.183,29.447,29.447,29.447H256V256.362z"/>
</g>
<path style="fill:#FFB995;" d="M256,222.107h-48.198c-7.76,0-14.051,6.29-14.051,14.051v27.051c0,7.76,6.29,14.051,14.051,14.051
	H256V222.107z"/>
</svg>