<?xml version="1.0" encoding="utf-8"?>
<!-- Generator: Adobe Illustrator 22.1.0, SVG Export Plug-In . SVG Version: 6.00 Build 0)  -->
<svg version="1.1" id="Layer_1" xmlns="http://www.w3.org/2000/svg" xmlns:xlink="http://www.w3.org/1999/xlink" x="0px" y="0px"
	 viewBox="0 0 256 256" style="enable-background:new 0 0 256 256;" xml:space="preserve">
<style type="text/css">
	.st0{fill:#231F20;}
	.st1{fill:#FFEFE4;}
	.st2{fill:#69EBFC;}
	.st3{fill:#5FD4E3;}
	.st4{fill:#A1F1FC;}
	.st5{fill:#D476E2;}
	.st6{fill:#B665C2;}
	.st7{fill:#EA82FA;}
	.st8{fill:#FFF7F2;}
	.st9{fill:#FF8354;}
	.st10{fill:#FFA172;}
	.st11{fill:#6770E6;}
	.st12{fill:#5861C7;}
	.st13{fill:#E0734A;}
	.st14{fill:#EDD4C2;}
	.st15{fill:#CC6944;}
	.st16{fill:#858EFF;}
	.st17{fill:#C76642;}
	.st18{fill:#FFFFFF;}
	.st19{fill:#FFDEC7;}
	.st20{fill:#4E56B0;}
	.st21{fill:#94529E;}
	.st22{fill:#41B6C5;}
	.st23{fill:#9847A4;}
	.st24{fill:#C2552C;}
	.st25{fill:#CFB6A4;}
</style>
<g>
	<circle class="st9" cx="128" cy="128" r="68.724"/>
	<path class="st9" d="M236.067,113.934h-20v-6.25c0-48.349-39.335-87.684-87.685-87.684s-87.685,39.335-87.685,87.684v6.25h-20
		v-6.25C20.698,48.307,69.005,0,128.383,0s107.685,48.307,107.685,107.684V113.934z"/>
	<path class="st10" d="M128.383,0C69.005,0,20.698,48.307,20.698,107.684v6.25h0.01C21.114,54.901,69.256,7,128.383,7
		s107.269,47.901,107.675,106.934h0.01v-6.25C236.067,48.307,187.761,0,128.383,0z"/>
	<path class="st5" d="M238.891,188.144h-25.648c-2.43,0-4.401-1.97-4.401-4.401v-75.409c0-2.43,1.97-4.401,4.401-4.401h25.648
		c2.43,0,4.401,1.97,4.401,4.401v75.409C243.292,186.174,241.322,188.144,238.891,188.144z"/>
	<path class="st6" d="M242.526,167.934L242.526,167.934l0-43.789h0c7.441,0,13.474,6.032,13.474,13.474v16.842
		C256,161.901,249.968,167.934,242.526,167.934z"/>
	<path class="st6" d="M13.474,167.934L13.474,167.934C6.032,167.934,0,161.901,0,154.46v-16.842c0-7.441,6.032-13.474,13.474-13.474
		h0V167.934z"/>
	<path class="st5" d="M43.523,188.144H17.874c-2.43,0-4.401-1.97-4.401-4.401v-75.409c0-2.43,1.97-4.401,4.401-4.401h25.648
		c2.43,0,4.401,1.97,4.401,4.401v75.409C47.923,186.174,45.953,188.144,43.523,188.144z"/>
	<path class="st9" d="M219.605,188.145c0,24.507-19.94,44.447-44.447,44.447h-6.265c-1.892-2.626-4.969-4.342-8.452-4.342h-15.598
		c-5.755,0-10.421,4.666-10.421,10.421c0,5.755,4.666,10.421,10.421,10.421h15.598c3.484,0,6.56-1.716,8.452-4.342h6.265
		c31.212,0,56.605-25.393,56.605-56.605H219.605z"/>
	<path class="st13" d="M175.158,237.75h-6.265c-1.892,2.626-4.969,4.342-8.452,4.342h-15.598c-4.525,0-8.366-2.89-9.806-6.921
		c-0.391,1.095-0.615,2.27-0.615,3.5c0,5.755,4.666,10.421,10.421,10.421h15.598c3.484,0,6.56-1.716,8.452-4.342h6.265
		c31.212,0,56.605-25.393,56.605-56.605h-0.448C227.853,216.064,203.998,237.75,175.158,237.75z"/>
	<path class="st1" d="M161.181,152.129l10.191,10.191c1.903-5.302,0.733-11.459-3.514-15.707
		c-4.265-4.265-10.452-5.413-15.768-3.477l-39.227-39.227c1.936-5.317,0.788-11.504-3.477-15.768
		c-4.247-4.247-10.405-5.417-15.707-3.514l10.191,10.192l-1.913,7.139l-7.139,1.913L84.627,93.679
		c-1.903,5.302-0.733,11.459,3.514,15.707c4.265,4.265,10.452,5.413,15.768,3.477l39.227,39.227
		c-1.936,5.317-0.788,11.504,3.477,15.768c4.247,4.247,10.405,5.417,15.707,3.514l-10.191-10.192l1.913-7.139L161.181,152.129z"/>
	<path class="st1" d="M165.27,87.391l-6.07,3.035l-0.455,3.49l-27.921,27.921l-0.417-0.417c-0.44-0.44-1.153-0.44-1.593,0
		l-2.808,2.807c-0.44,0.44-1.153,0.44-1.593,0c-0.44-0.44-1.153-0.44-1.593,0l-33.574,33.574c-2.472,2.472-2.472,6.481,0,8.953
		s6.481,2.472,8.953,0l33.574-33.574c0.44-0.44,0.44-1.153,0-1.593v0c-0.44-0.44-0.44-1.153,0-1.593l2.807-2.807
		c0.44-0.44,0.44-1.153,0-1.593l-0.417-0.417l27.921-27.921l3.49-0.455l3.035-6.07L165.27,87.391z"/>
</g>
</svg>
