<?xml version="1.0" ?><!-- Uploaded to: SVG Repo, www.svgrepo.com, Generator: SVG Repo Mixer Tools -->
<svg width="800px" height="800px" viewBox="0 0 64 64" data-name="Layer 1" id="Layer_1" xmlns="http://www.w3.org/2000/svg"><defs><style>
      .cls-1 {
        fill: #f5dd90;
      }

      .cls-2 {
        fill: #f76c5e;
      }

      .cls-3 {
        fill: #ffbc0a;
      }

      .cls-4 {
        fill: #a3cef1;
      }

      .cls-5 {
        fill: #6096ba;
      }

      .cls-6 {
        fill: #274c77;
      }
    </style></defs><path class="cls-5" d="M38,30c0,3.31-2.69,6-6,6s-6-2.69-6-6"/><path class="cls-6" d="M15,38l-2,6-2-6V20c0-1.1,.9-2,2-2h0c1.1,0,2,.9,2,2v18Z"/><path class="cls-2" d="M15,22h-4v-2c0-1.1,.9-2,2-2,.55,0,1.05,.22,1.41,.59,.37,.36,.59,.86,.59,1.41v2Z"/><polygon class="cls-2" points="15 38 11 38 13 44 15 38"/><path class="cls-6" d="M53,38l-2,6-2-6V20c0-1.1,.9-2,2-2h0c1.1,0,2,.9,2,2v18Z"/><path class="cls-2" d="M53,22h-4v-2c0-1.1,.9-2,2-2,.55,0,1.05,.22,1.41,.59,.37,.36,.59,.86,.59,1.41v2Z"/><polygon class="cls-2" points="53 38 49 38 51 44 53 38"/><path class="cls-1" d="M44,14c0-6.63-5.37-12-12-12s-12,5.37-12,12c0,4.44,2.42,8.31,6,10.38v1.62h12v-1.62c3.58-2.08,6-5.94,6-10.38Z"/><rect class="cls-6" height="4" rx="1" ry="1" width="14" x="25" y="26"/><path class="cls-5" d="M60,62h-28v-2h28c.55,0,1-.45,1-1s-.45-1-1-1H4c-1.65,0-3-1.35-3-3s1.35-3,3-3H31v-2h2v2c0,1.1-.9,2-2,2H4c-.55,0-1,.45-1,1s.45,1,1,1H60c1.65,0,3,1.35,3,3s-1.35,3-3,3Z"/><rect class="cls-2" height="2" width="2" x="28" y="60"/><rect class="cls-2" height="2" width="2" x="24" y="60"/><rect class="cls-2" height="2" width="2" x="20" y="60"/><rect class="cls-2" height="2" width="2" x="16" y="60"/><rect class="cls-2" height="2" width="2" x="12" y="60"/><rect class="cls-2" height="2" width="2" x="8" y="60"/><rect class="cls-2" height="2" width="2" x="4" y="60"/><path class="cls-4" d="M38.93,18.07c.34-.59,.92-.94,1.54-1,.34-.96,.53-1.99,.53-3.07s-.19-2.11-.53-3.07c-.62-.06-1.21-.41-1.54-1-.34-.59-.34-1.29-.08-1.87-1.32-1.57-3.14-2.68-5.22-3.06-.36,.52-.96,.86-1.63,.86s-1.27-.34-1.63-.86c-2.08,.39-3.9,1.5-5.22,3.06,.26,.58,.25,1.27-.08,1.87-.34,.59-.92,.94-1.54,1-.34,.96-.53,1.99-.53,3.07s.19,2.11,.53,3.07c.62,.06,1.21,.41,1.54,1,.34,.59,.34,1.29,.08,1.87,1.32,1.57,3.14,2.68,5.22,3.06,.36-.52,.96-.86,1.63-.86s1.27,.34,1.63,.86c2.08-.39,3.9-1.5,5.22-3.06-.26-.58-.25-1.27,.08-1.87Z"/><circle class="cls-3" cx="32" cy="14" r="5"/><rect class="cls-2" height="2" width="2" x="31" y="46"/><rect class="cls-2" height="2" width="2" x="31" y="42"/><rect class="cls-2" height="2" width="2" x="31" y="38"/></svg>