<?xml version="1.0" encoding="utf-8"?>
<svg xmlns="http://www.w3.org/2000/svg" viewBox="0 0 500 500">
  <defs>
    <circle id="a" cx="50" cy="50" r="50"/>
  </defs>
  <title>mobile</title>
  <title>testing/performance-testing</title>
  <desc>Created with Sketch.</desc>
  <title>testing/performance-testing</title>
  <desc>Created with Sketch.</desc>
  <path d="M 208.872 351.394 C 205.13 365.86 197.401 379.575 186.177 390.797 C 160.241 416.488 64.286 447.103 53.561 450.344 C 49.321 451.59 44.583 450.344 41.341 447.103 C 38.1 443.86 36.851 439.122 38.1 434.632 C 41.341 424.158 72.205 328.45 97.892 302.514 C 109.114 291.292 122.829 283.56 137.297 279.818 L 172.958 315.483 L 208.872 351.394 Z" id="Shape" fill="#FFE470" fill-rule="nonzero" stroke="none" stroke-width="1" style="transform-box: fill-box; transform-origin: 50% 50%;" transform="matrix(0.999886, -0.015114, 0.015114, 0.999886, 0, 0)"/>
  <path d="M 173.229 315.452 L 209.139 351.363 C 205.399 365.828 197.67 379.545 186.446 390.767 C 160.509 416.456 64.554 447.071 53.83 450.313 C 49.59 451.56 44.851 450.313 41.61 447.071 L 173.229 315.452 Z" id="Shape" fill="#FFD400" fill-rule="nonzero" stroke="none" stroke-width="1" style="transform-box: fill-box; transform-origin: 50% 50%;" transform="matrix(0.999886, -0.015114, 0.015114, 0.999886, 0, 0)"/>
  <path d="M 176.781 328.535 L 141.615 363.947 C 139.124 366.192 135.881 367.44 132.889 367.44 C 129.646 367.44 126.404 366.192 123.91 363.947 L 123.91 363.699 C 119.171 358.712 119.171 350.978 123.91 346.242 L 159.324 311.077 C 164.063 306.089 171.793 306.089 176.531 311.077 L 176.781 311.077 C 181.767 315.817 181.767 323.797 176.781 328.535 Z" id="Shape" fill="#FFD400" fill-rule="nonzero" stroke="none" stroke-width="1" style="transform-box: fill-box; transform-origin: 50% 50%;" transform="matrix(0.999886, -0.015114, 0.015114, 0.999886, 0, 0)"/>
  <path d="M 176.809 311.051 C 181.795 315.789 181.795 323.77 176.809 328.509 L 141.643 363.922 C 139.151 366.166 135.908 367.412 132.916 367.412 C 129.673 367.412 126.432 366.166 123.936 363.922 L 123.936 363.672 L 176.559 311.049 L 176.809 311.051 Z" id="Shape" fill="#FDBF00" fill-rule="nonzero" stroke="none" stroke-width="1" style="transform-box: fill-box; transform-origin: 50% 50%;" transform="matrix(0.999886, -0.015114, 0.015114, 0.999886, 0, 0)"/>
  <path d="M 180.099 147.814 C 91.539 147.814 63.589 222.688 61.347 225.19 C 59.399 229.051 59.582 233.654 61.858 237.343 C 64.123 241.033 68.141 243.285 72.476 243.285 C 123.657 247.812 155.592 250.634 153.04 250.408 L 195.454 147.813 L 180.099 147.813 L 180.099 147.814 Z" id="Shape" fill="#FF7816" fill-rule="nonzero" stroke="none" stroke-width="1" style="transform-box: fill-box; transform-origin: 50% 50%;" transform="matrix(0.999886, -0.015114, 0.015114, 0.999886, 0, 0)"/>
  <path d="M 237.79 330.231 C 237.983 332.784 244.234 415.198 243.83 409.858 C 243.83 419.143 253.639 425.16 261.926 420.989 C 264.423 418.752 339.301 390.269 339.301 302.233 L 339.301 286.878 L 237.79 330.231 Z" id="Shape" fill="#FF4B00" fill-rule="nonzero" stroke="none" stroke-width="1" style="transform-box: fill-box; transform-origin: 50% 50%;" transform="matrix(0.999886, -0.015114, 0.015114, 0.999886, 0, 0)"/>
  <path d="M 247.077 345.973 C 233.86 352.707 220.64 359.194 208.172 365.426 C 203.433 367.921 197.698 366.923 193.707 363.182 L 123.378 292.853 C 119.638 288.863 118.639 283.128 121.135 278.389 C 127.369 265.918 133.853 252.701 140.586 239.483 C 144.578 231.753 173.505 248.961 177.498 240.98 L 245.581 309.063 C 237.6 313.052 254.807 341.984 247.077 345.973 Z" id="Shape" fill="#FF9F00" fill-rule="nonzero" stroke="none" stroke-width="1" style="transform-box: fill-box; transform-origin: 50% 50%;" transform="matrix(0.999886, -0.015114, 0.015114, 0.999886, 0, 0)"/>
  <path d="M 247.361 345.676 C 234.144 352.41 220.924 358.898 208.456 365.13 C 203.717 367.624 197.982 366.627 193.991 362.887 L 158.826 327.721 L 211.946 274.851 L 245.865 308.768 C 237.884 312.756 255.091 341.687 247.361 345.676 Z" id="Shape" fill="#FF7816" fill-rule="nonzero" stroke="none" stroke-width="1" style="transform-box: fill-box; transform-origin: 50% 50%;" transform="matrix(0.999886, -0.015114, 0.015114, 0.999886, 0, 0)"/>
  <path d="M 450.124 146.531 C 438.902 189.427 418.7 224.341 387.277 254.52 C 350.618 289.932 292.01 320.857 245.374 344.299 L 192.254 291.179 L 138.884 237.809 C 162.326 191.171 193.253 132.314 228.665 95.905 C 258.84 64.482 293.755 44.28 336.651 33.057 L 361.837 42.286 C 362.337 63.981 371.067 83.684 385.282 97.898 C 399.497 112.114 419.199 120.843 440.895 121.34 L 450.124 146.531 Z" id="Shape" fill="#ECECF1" fill-rule="nonzero" stroke="none" stroke-width="1" style="transform-box: fill-box; transform-origin: 50% 50%;" transform="matrix(0.999886, -0.015114, 0.015114, 0.999886, 0, 0)"/>
  <path d="M 450.612 146.122 C 439.389 189.02 419.188 223.934 387.764 254.113 C 351.105 289.525 292.497 320.45 245.862 343.892 L 192.741 290.771 L 385.769 97.491 C 399.985 111.707 419.686 120.437 441.384 120.934 L 450.612 146.122 Z" id="Shape" fill="#E2E2E7" fill-rule="nonzero" stroke="none" stroke-width="1" style="transform-box: fill-box; transform-origin: 50% 50%;" transform="matrix(0.999886, -0.015114, 0.015114, 0.999886, 0, 0)"/>
  <path d="M 350.679 132.128 C 326.49 107.939 286.835 107.939 262.646 132.128 C 238.453 156.568 238.453 195.723 262.646 220.164 L 262.646 220.413 C 286.835 244.604 326.49 244.604 350.679 220.413 C 375.121 195.973 375.121 156.571 350.679 132.128 Z" id="Shape" fill="#76E2F8" fill-rule="nonzero" stroke="none" stroke-width="1" style="transform-box: fill-box; transform-origin: 50% 50%;" transform="matrix(0.999886, -0.015114, 0.015114, 0.999886, 0, 0)"/>
  <path d="M 448.538 144.969 C 446.543 144.969 440.807 144.722 438.813 144.722 C 410.131 144.223 384.695 132.752 365.991 114.047 C 347.287 95.341 335.813 69.903 335.316 41.225 C 335.316 39.229 335.067 33.492 335.067 31.497 C 370.481 22.269 410.133 20.026 446.546 21.521 C 449.786 21.521 452.779 22.769 455.026 25.014 C 457.268 27.257 458.516 30.251 458.516 33.492 C 460.01 69.901 457.516 109.555 448.538 144.969 Z" id="Shape" fill="#FF9F00" fill-rule="nonzero" stroke="none" stroke-width="1" style="transform-box: fill-box; transform-origin: 50% 50%;" transform="matrix(0.999886, -0.015114, 0.015114, 0.999886, 0, 0)"/>
  <path d="M 245.764 256.639 C 241.027 261.627 233.047 261.627 228.307 256.639 C 223.32 251.901 223.32 243.921 228.307 239.182 C 233.045 234.194 241.024 234.194 245.764 239.182 C 250.753 243.918 250.753 251.901 245.764 256.639 Z" id="Shape" fill="#5A5A5A" fill-rule="nonzero" stroke="none" stroke-width="1" style="transform-box: fill-box; transform-origin: 50% 50%;" transform="matrix(0.999886, -0.015114, 0.015114, 0.999886, 0, 0)"/>
  <path d="M 448.567 144.736 C 446.572 144.736 440.836 144.487 438.842 144.487 C 410.161 143.99 384.724 132.517 366.02 113.812 L 455.053 24.779 C 457.296 27.023 458.542 30.016 458.542 33.258 C 460.039 69.667 457.546 109.32 448.567 144.736 Z" id="Shape" fill="#FF7816" fill-rule="nonzero" stroke="none" stroke-width="1" style="transform-box: fill-box; transform-origin: 50% 50%;" transform="matrix(0.999886, -0.015114, 0.015114, 0.999886, 0, 0)"/>
  <path d="M 350.816 220.275 C 326.627 244.466 286.972 244.466 262.783 220.275 L 262.783 220.025 L 350.816 131.99 C 375.258 156.432 375.258 195.834 350.816 220.275 Z" id="Shape" fill="#25D9F8" fill-rule="nonzero" stroke="none" stroke-width="1" style="transform-box: fill-box; transform-origin: 50% 50%;" transform="matrix(0.999886, -0.015114, 0.015114, 0.999886, 0, 0)"/>
  <path d="M 245.792 256.61 C 241.053 261.598 233.075 261.598 228.335 256.61 L 245.792 239.153 C 250.781 243.889 250.781 251.873 245.792 256.61 Z" id="Shape" fill="#444444" fill-rule="nonzero" stroke="none" stroke-width="1" style="transform-box: fill-box; transform-origin: 50% 50%;" transform="matrix(0.999886, -0.015114, 0.015114, 0.999886, 0, 0)"/>
</svg>