<?xml version="1.0" encoding="iso-8859-1"?>
<!-- Uploaded to: SVG Repo, www.svgrepo.com, Generator: SVG Repo Mixer Tools -->
<svg version="1.1" id="Layer_1" xmlns="http://www.w3.org/2000/svg" xmlns:xlink="http://www.w3.org/1999/xlink" 
	 viewBox="0 0 512 512" xml:space="preserve">
<polygon style="fill:#EEEEEE;" points="512,0 512,512 478.242,512 399.473,256 478.242,0 "/>
<rect style="fill:#FFFFFF;" width="478.242" height="512"/>
<polygon style="fill:#FE5F1A;" points="478.242,33.758 478.242,67.516 444.484,67.516 414.312,50.637 444.484,33.758 "/>
<rect x="33.758" y="33.758" style="fill:#FE834D;" width="410.725" height="33.758"/>
<polygon style="fill:#81E3E2;" points="478.242,361.964 478.242,478.242 444.484,478.242 414.312,420.102 444.484,361.964 "/>
<rect x="33.758" y="361.967" style="fill:#ABECEC;" width="410.725" height="116.275"/>
<g>
	<path style="fill:#969696;" d="M318.827,269.129H193.173c-4.662,0-8.44-3.778-8.44-8.44c0-4.662,3.778-8.44,8.44-8.44h125.655
		c4.662,0,8.44,3.778,8.44,8.44C327.267,265.351,323.49,269.129,318.827,269.129z"/>
	<path style="fill:#969696;" d="M478.242,269.129H352.586c-4.662,0-8.44-3.778-8.44-8.44c0-4.662,3.778-8.44,8.44-8.44h125.656
		c4.662,0,8.44,3.778,8.44,8.44C486.681,265.351,482.904,269.129,478.242,269.129z"/>
	<path style="fill:#969696;" d="M159.414,269.129H33.758c-4.662,0-8.44-3.778-8.44-8.44c0-4.662,3.778-8.44,8.44-8.44h125.656
		c4.662,0,8.44,3.778,8.44,8.44C167.854,265.351,164.076,269.129,159.414,269.129z"/>
	<path style="fill:#969696;" d="M318.827,302.887H193.173c-4.662,0-8.44-3.778-8.44-8.44s3.778-8.44,8.44-8.44h125.655
		c4.662,0,8.44,3.778,8.44,8.44S323.49,302.887,318.827,302.887z"/>
	<path style="fill:#969696;" d="M478.242,302.887H352.586c-4.662,0-8.44-3.778-8.44-8.44s3.778-8.44,8.44-8.44h125.656
		c4.662,0,8.44,3.778,8.44,8.44S482.904,302.887,478.242,302.887z"/>
	<path style="fill:#969696;" d="M159.414,302.887H33.758c-4.662,0-8.44-3.778-8.44-8.44s3.778-8.44,8.44-8.44h125.656
		c4.662,0,8.44,3.778,8.44,8.44S164.076,302.887,159.414,302.887z"/>
	<path style="fill:#969696;" d="M256.188,336.645h-63.015c-4.662,0-8.44-3.778-8.44-8.44s3.778-8.44,8.44-8.44h63.015
		c4.662,0,8.44,3.778,8.44,8.44S260.85,336.645,256.188,336.645z"/>
	<path style="fill:#969696;" d="M415.601,336.645h-63.015c-4.662,0-8.44-3.778-8.44-8.44s3.778-8.44,8.44-8.44h63.015
		c4.662,0,8.44,3.778,8.44,8.44S420.263,336.645,415.601,336.645z"/>
	<path style="fill:#969696;" d="M96.774,336.645H33.758c-4.662,0-8.44-3.778-8.44-8.44s3.778-8.44,8.44-8.44h63.015
		c4.662,0,8.44,3.778,8.44,8.44S101.436,336.645,96.774,336.645z"/>
</g>
<g>
	<path style="fill:#42C8C6;" d="M327.225,100.439c-0.011-0.114-0.033-0.225-0.048-0.338c-0.022-0.16-0.042-0.321-0.073-0.478
		c-0.027-0.135-0.064-0.266-0.097-0.398c-0.034-0.135-0.063-0.27-0.104-0.403c-0.041-0.132-0.089-0.258-0.135-0.387
		c-0.047-0.131-0.09-0.262-0.143-0.392c-0.05-0.12-0.109-0.236-0.164-0.354c-0.062-0.132-0.12-0.264-0.19-0.394
		c-0.06-0.111-0.128-0.217-0.192-0.326c-0.077-0.128-0.149-0.258-0.233-0.383c-0.078-0.117-0.165-0.226-0.249-0.338
		c-0.081-0.109-0.156-0.219-0.243-0.325c-0.147-0.18-0.306-0.351-0.468-0.518c-0.032-0.032-0.057-0.068-0.089-0.099
		c-0.03-0.029-0.063-0.055-0.093-0.084c-0.169-0.164-0.342-0.324-0.524-0.474c-0.098-0.081-0.203-0.151-0.303-0.226
		c-0.119-0.09-0.237-0.182-0.361-0.266c-0.116-0.078-0.236-0.144-0.356-0.216c-0.117-0.071-0.233-0.144-0.354-0.209
		c-0.118-0.063-0.239-0.116-0.359-0.173c-0.129-0.062-0.258-0.126-0.392-0.181c-0.114-0.047-0.231-0.084-0.345-0.127
		c-0.144-0.052-0.287-0.107-0.434-0.152c-0.113-0.034-0.227-0.059-0.341-0.088c-0.153-0.039-0.305-0.082-0.461-0.113
		c-0.125-0.025-0.251-0.038-0.376-0.057c-0.146-0.022-0.291-0.05-0.441-0.064c-0.208-0.02-0.417-0.027-0.627-0.032
		c-0.068-0.001-0.133-0.01-0.2-0.01H193.173c-0.07,0-0.138,0.009-0.208,0.01c-0.206,0.004-0.413,0.011-0.619,0.032
		c-0.15,0.015-0.295,0.042-0.442,0.064c-0.125,0.019-0.25,0.033-0.375,0.057c-0.155,0.03-0.306,0.072-0.458,0.111
		c-0.115,0.029-0.231,0.054-0.344,0.089c-0.145,0.044-0.286,0.098-0.428,0.15c-0.118,0.043-0.236,0.081-0.353,0.129
		c-0.132,0.055-0.259,0.118-0.387,0.18c-0.122,0.057-0.243,0.111-0.361,0.174c-0.122,0.065-0.237,0.14-0.356,0.21
		s-0.239,0.138-0.354,0.215c-0.125,0.083-0.242,0.176-0.361,0.266c-0.101,0.075-0.205,0.145-0.304,0.226
		c-0.182,0.15-0.356,0.309-0.524,0.474c-0.03,0.029-0.063,0.054-0.093,0.084c-0.032,0.032-0.059,0.068-0.089,0.099
		c-0.162,0.167-0.321,0.338-0.468,0.518c-0.087,0.106-0.162,0.216-0.243,0.325c-0.083,0.113-0.171,0.222-0.249,0.338
		c-0.083,0.125-0.156,0.255-0.233,0.383c-0.064,0.108-0.133,0.214-0.192,0.326c-0.07,0.129-0.128,0.263-0.191,0.396
		c-0.055,0.117-0.114,0.232-0.163,0.352c-0.054,0.129-0.098,0.262-0.144,0.395c-0.046,0.128-0.095,0.254-0.135,0.385
		c-0.04,0.133-0.07,0.268-0.104,0.403c-0.033,0.133-0.071,0.262-0.097,0.398c-0.032,0.159-0.051,0.318-0.073,0.478
		c-0.016,0.113-0.037,0.224-0.048,0.338c-0.028,0.28-0.043,0.56-0.042,0.842v125.645c0,0.281,0.015,0.561,0.042,0.842
		c0.011,0.114,0.033,0.225,0.048,0.338c0.023,0.16,0.042,0.321,0.073,0.478c0.027,0.135,0.064,0.266,0.097,0.398
		c0.034,0.135,0.063,0.27,0.104,0.403c0.039,0.131,0.089,0.257,0.135,0.385c0.047,0.133,0.091,0.266,0.144,0.395
		c0.05,0.119,0.108,0.234,0.163,0.351c0.062,0.133,0.122,0.267,0.191,0.397c0.06,0.111,0.128,0.217,0.192,0.326
		c0.077,0.128,0.149,0.258,0.233,0.383c0.078,0.117,0.165,0.226,0.249,0.338c0.081,0.109,0.156,0.219,0.243,0.325
		c0.147,0.18,0.306,0.351,0.468,0.518c0.032,0.032,0.057,0.068,0.089,0.099c0.03,0.029,0.063,0.055,0.093,0.084
		c0.169,0.164,0.342,0.324,0.524,0.474c0.099,0.081,0.203,0.151,0.304,0.227c0.119,0.09,0.236,0.182,0.361,0.266
		c0.117,0.078,0.239,0.145,0.359,0.217c0.117,0.07,0.231,0.143,0.351,0.208c0.122,0.064,0.246,0.119,0.369,0.178
		c0.126,0.06,0.25,0.122,0.379,0.176c0.12,0.05,0.243,0.09,0.366,0.134c0.137,0.05,0.273,0.102,0.414,0.144
		c0.122,0.037,0.245,0.064,0.367,0.095c0.144,0.037,0.287,0.077,0.433,0.106c0.144,0.028,0.288,0.045,0.433,0.066
		c0.127,0.019,0.253,0.043,0.381,0.055c0.277,0.027,0.555,0.042,0.833,0.042h125.655c0.278,0,0.556-0.015,0.833-0.042
		c0.129-0.012,0.254-0.037,0.381-0.055c0.145-0.021,0.289-0.037,0.433-0.066c0.146-0.029,0.289-0.07,0.433-0.106
		c0.123-0.03,0.246-0.057,0.367-0.095c0.141-0.043,0.278-0.095,0.415-0.145c0.122-0.044,0.244-0.083,0.365-0.133
		c0.129-0.054,0.254-0.117,0.38-0.177c0.123-0.059,0.248-0.113,0.369-0.177c0.12-0.065,0.234-0.138,0.351-0.208
		c0.12-0.072,0.242-0.14,0.359-0.217c0.125-0.083,0.241-0.176,0.361-0.266c0.101-0.075,0.205-0.146,0.304-0.227
		c0.182-0.15,0.356-0.309,0.524-0.474c0.03-0.029,0.063-0.054,0.093-0.084c0.032-0.032,0.059-0.068,0.089-0.099
		c0.162-0.167,0.321-0.338,0.468-0.518c0.087-0.106,0.162-0.216,0.243-0.325c0.083-0.113,0.171-0.222,0.249-0.338
		c0.083-0.125,0.156-0.255,0.233-0.383c0.064-0.108,0.133-0.214,0.192-0.326c0.07-0.129,0.128-0.262,0.19-0.395
		c0.055-0.117,0.114-0.233,0.164-0.353c0.054-0.129,0.097-0.261,0.144-0.393c0.046-0.128,0.096-0.255,0.135-0.386
		c0.041-0.133,0.07-0.268,0.104-0.403c0.033-0.133,0.071-0.262,0.097-0.398c0.032-0.159,0.051-0.318,0.073-0.478
		c0.016-0.113,0.037-0.224,0.048-0.338c0.028-0.28,0.043-0.56,0.042-0.842V101.28C327.267,100.999,327.252,100.719,327.225,100.439z
		 M244.064,164.102l-42.452,42.452V121.65L244.064,164.102z M213.548,109.714h84.903L256,152.166L213.548,109.714z M256,176.039
		l42.452,42.452h-84.903L256,176.039z M267.936,164.102l42.452-42.452v84.904L267.936,164.102z"/>
	<path style="fill:#42C8C6;" d="M485.01,231.957c0.083-0.113,0.171-0.222,0.249-0.338c0.083-0.125,0.156-0.255,0.233-0.383
		c0.064-0.108,0.133-0.214,0.192-0.326c0.07-0.129,0.128-0.262,0.19-0.395c0.055-0.117,0.114-0.233,0.164-0.353
		c0.054-0.129,0.097-0.261,0.144-0.393c0.046-0.128,0.096-0.255,0.135-0.386c0.041-0.133,0.07-0.268,0.104-0.403
		c0.033-0.133,0.071-0.262,0.097-0.398c0.032-0.159,0.051-0.318,0.073-0.478c0.016-0.113,0.037-0.224,0.048-0.338
		c0.028-0.28,0.043-0.56,0.043-0.842V101.28c0-0.281-0.015-0.562-0.043-0.842c-0.011-0.114-0.033-0.225-0.048-0.338
		c-0.022-0.16-0.042-0.321-0.073-0.478c-0.027-0.135-0.064-0.266-0.097-0.398c-0.034-0.135-0.063-0.27-0.104-0.403
		c-0.039-0.132-0.089-0.258-0.135-0.387c-0.047-0.131-0.09-0.262-0.143-0.392c-0.049-0.12-0.109-0.236-0.164-0.354
		c-0.062-0.132-0.12-0.264-0.19-0.394c-0.06-0.111-0.128-0.217-0.192-0.326c-0.077-0.128-0.149-0.258-0.233-0.383
		c-0.078-0.117-0.165-0.226-0.249-0.338c-0.081-0.109-0.156-0.219-0.243-0.325c-0.147-0.18-0.306-0.351-0.468-0.518
		c-0.032-0.032-0.057-0.068-0.089-0.099c-0.03-0.029-0.063-0.055-0.093-0.084c-0.169-0.164-0.342-0.324-0.524-0.474
		c-0.098-0.081-0.201-0.151-0.303-0.226c-0.119-0.09-0.237-0.182-0.361-0.266c-0.117-0.078-0.236-0.144-0.356-0.216
		c-0.117-0.071-0.233-0.144-0.354-0.209c-0.118-0.063-0.239-0.116-0.359-0.173c-0.129-0.062-0.258-0.126-0.392-0.181
		c-0.114-0.047-0.231-0.084-0.345-0.127c-0.144-0.052-0.287-0.107-0.434-0.152c-0.113-0.034-0.227-0.059-0.341-0.088
		c-0.153-0.039-0.305-0.082-0.461-0.113c-0.125-0.025-0.25-0.038-0.376-0.057c-0.146-0.022-0.291-0.05-0.441-0.064
		c-0.208-0.02-0.417-0.027-0.626-0.032c-0.068-0.001-0.133-0.01-0.2-0.01H352.586c-0.068,0-0.133,0.009-0.2,0.01
		c-0.209,0.004-0.417,0.011-0.627,0.032c-0.15,0.015-0.294,0.042-0.441,0.064c-0.125,0.019-0.251,0.033-0.376,0.057
		c-0.156,0.03-0.308,0.073-0.461,0.113c-0.114,0.029-0.228,0.053-0.341,0.088c-0.147,0.045-0.289,0.099-0.433,0.152
		c-0.116,0.042-0.233,0.08-0.347,0.127c-0.133,0.055-0.261,0.119-0.39,0.181c-0.12,0.057-0.242,0.11-0.36,0.173
		c-0.122,0.065-0.236,0.138-0.354,0.209c-0.119,0.071-0.24,0.138-0.356,0.216c-0.125,0.083-0.242,0.177-0.361,0.266
		c-0.101,0.075-0.205,0.145-0.303,0.226c-0.182,0.15-0.356,0.309-0.524,0.474c-0.03,0.029-0.063,0.054-0.093,0.084
		c-0.032,0.032-0.059,0.068-0.089,0.099c-0.162,0.167-0.321,0.338-0.468,0.518c-0.087,0.106-0.162,0.216-0.243,0.325
		c-0.083,0.113-0.171,0.222-0.249,0.338c-0.083,0.125-0.156,0.255-0.233,0.383c-0.064,0.108-0.133,0.214-0.192,0.326
		c-0.07,0.129-0.128,0.263-0.191,0.396c-0.055,0.117-0.114,0.232-0.163,0.352c-0.054,0.129-0.098,0.262-0.144,0.395
		c-0.046,0.128-0.095,0.254-0.135,0.385c-0.041,0.133-0.07,0.268-0.104,0.403c-0.033,0.133-0.071,0.262-0.097,0.398
		c-0.032,0.159-0.051,0.318-0.073,0.478c-0.016,0.113-0.037,0.224-0.048,0.338c-0.028,0.28-0.043,0.56-0.042,0.842v125.645
		c0,0.281,0.015,0.561,0.042,0.842c0.011,0.114,0.033,0.225,0.048,0.338c0.022,0.16,0.042,0.321,0.073,0.478
		c0.027,0.135,0.064,0.266,0.097,0.398c0.034,0.135,0.063,0.27,0.104,0.403c0.039,0.131,0.089,0.257,0.135,0.385
		c0.047,0.133,0.091,0.266,0.144,0.395c0.05,0.119,0.108,0.234,0.163,0.351c0.062,0.133,0.122,0.267,0.191,0.397
		c0.06,0.111,0.128,0.217,0.192,0.326c0.077,0.128,0.149,0.258,0.233,0.383c0.078,0.117,0.165,0.226,0.249,0.338
		c0.081,0.109,0.156,0.219,0.243,0.325c0.147,0.18,0.306,0.351,0.468,0.518c0.032,0.032,0.057,0.068,0.089,0.099
		c0.03,0.029,0.063,0.055,0.093,0.084c0.169,0.164,0.342,0.324,0.524,0.474c0.099,0.081,0.203,0.151,0.304,0.227
		c0.119,0.09,0.236,0.182,0.361,0.266c0.117,0.078,0.239,0.145,0.359,0.217c0.117,0.07,0.231,0.143,0.351,0.208
		c0.122,0.064,0.246,0.119,0.369,0.178c0.126,0.06,0.25,0.122,0.379,0.176c0.12,0.05,0.243,0.09,0.366,0.134
		c0.137,0.05,0.273,0.102,0.414,0.144c0.122,0.037,0.245,0.064,0.367,0.095c0.144,0.037,0.287,0.077,0.433,0.106
		c0.144,0.028,0.288,0.045,0.433,0.066c0.127,0.019,0.253,0.043,0.381,0.055c0.277,0.027,0.555,0.042,0.833,0.042h125.656
		c0.278,0,0.556-0.015,0.833-0.042c0.129-0.012,0.254-0.037,0.381-0.055c0.144-0.021,0.289-0.037,0.433-0.066
		c0.146-0.029,0.289-0.07,0.433-0.106c0.123-0.03,0.246-0.057,0.367-0.095c0.141-0.043,0.278-0.095,0.415-0.145
		c0.122-0.044,0.244-0.083,0.365-0.133c0.129-0.054,0.254-0.117,0.38-0.177c0.123-0.059,0.248-0.113,0.368-0.177
		c0.12-0.065,0.234-0.138,0.351-0.208c0.12-0.072,0.242-0.14,0.359-0.217c0.125-0.083,0.241-0.176,0.361-0.266
		c0.101-0.075,0.205-0.146,0.304-0.227c0.182-0.15,0.356-0.309,0.524-0.474c0.03-0.029,0.063-0.054,0.093-0.084
		c0.032-0.032,0.059-0.068,0.089-0.099c0.162-0.167,0.32-0.338,0.468-0.518C484.854,232.177,484.929,232.065,485.01,231.957z
		 M403.477,164.102l-42.452,42.452V121.65L403.477,164.102z M372.961,109.714h84.904l-42.452,42.452L372.961,109.714z
		 M415.413,176.039l42.452,42.452h-84.904L415.413,176.039z M427.35,164.102l42.452-42.452v84.904L427.35,164.102z"/>
	<path style="fill:#42C8C6;" d="M167.811,100.439c-0.011-0.114-0.033-0.225-0.048-0.338c-0.023-0.16-0.042-0.321-0.073-0.478
		c-0.027-0.135-0.064-0.266-0.097-0.398c-0.034-0.135-0.063-0.27-0.104-0.403c-0.04-0.132-0.089-0.258-0.135-0.387
		c-0.047-0.131-0.09-0.262-0.143-0.392c-0.05-0.12-0.109-0.236-0.164-0.354c-0.062-0.132-0.12-0.264-0.19-0.394
		c-0.06-0.111-0.128-0.217-0.192-0.326c-0.077-0.128-0.149-0.258-0.233-0.383c-0.078-0.117-0.165-0.226-0.249-0.338
		c-0.081-0.109-0.156-0.219-0.243-0.325c-0.147-0.18-0.306-0.351-0.468-0.518c-0.032-0.032-0.057-0.068-0.089-0.099
		c-0.03-0.029-0.063-0.055-0.093-0.084c-0.169-0.164-0.342-0.324-0.524-0.474c-0.098-0.081-0.203-0.151-0.303-0.226
		c-0.119-0.09-0.237-0.182-0.361-0.266c-0.116-0.078-0.236-0.144-0.356-0.216c-0.117-0.071-0.233-0.144-0.354-0.209
		c-0.118-0.063-0.239-0.116-0.359-0.173c-0.129-0.062-0.258-0.126-0.392-0.181c-0.114-0.047-0.231-0.084-0.345-0.127
		c-0.144-0.052-0.287-0.107-0.434-0.152c-0.113-0.034-0.227-0.059-0.341-0.088c-0.153-0.039-0.305-0.082-0.461-0.113
		c-0.125-0.025-0.251-0.038-0.376-0.057c-0.146-0.022-0.291-0.05-0.441-0.064c-0.208-0.02-0.417-0.027-0.627-0.032
		c-0.068-0.001-0.133-0.01-0.2-0.01H33.758c-0.068,0-0.133,0.009-0.2,0.01c-0.209,0.004-0.417,0.011-0.627,0.032
		c-0.15,0.015-0.294,0.042-0.441,0.064c-0.125,0.019-0.251,0.033-0.376,0.057c-0.156,0.03-0.308,0.073-0.461,0.113
		c-0.114,0.029-0.228,0.053-0.341,0.088c-0.147,0.045-0.289,0.099-0.433,0.152c-0.116,0.042-0.233,0.08-0.347,0.127
		c-0.133,0.055-0.261,0.119-0.39,0.181c-0.12,0.057-0.242,0.11-0.36,0.173c-0.122,0.065-0.236,0.138-0.354,0.209
		c-0.119,0.071-0.24,0.138-0.356,0.216c-0.125,0.083-0.242,0.177-0.361,0.266c-0.101,0.075-0.205,0.145-0.303,0.226
		c-0.182,0.15-0.356,0.309-0.524,0.474c-0.03,0.029-0.063,0.054-0.093,0.084c-0.032,0.032-0.059,0.068-0.089,0.099
		c-0.162,0.167-0.321,0.338-0.468,0.518c-0.087,0.106-0.162,0.216-0.243,0.325c-0.083,0.113-0.171,0.222-0.249,0.338
		c-0.083,0.125-0.156,0.255-0.233,0.383c-0.064,0.108-0.133,0.214-0.192,0.326c-0.07,0.129-0.128,0.263-0.191,0.396
		c-0.055,0.117-0.114,0.232-0.163,0.352c-0.054,0.129-0.098,0.262-0.144,0.395c-0.046,0.128-0.095,0.254-0.135,0.385
		c-0.041,0.133-0.07,0.268-0.104,0.403c-0.033,0.133-0.071,0.262-0.097,0.398c-0.032,0.159-0.051,0.318-0.073,0.478
		c-0.016,0.113-0.037,0.224-0.048,0.338c-0.028,0.28-0.043,0.56-0.042,0.842v125.645c0,0.281,0.015,0.561,0.042,0.842
		c0.011,0.114,0.033,0.225,0.048,0.338c0.023,0.16,0.042,0.321,0.073,0.478c0.027,0.135,0.064,0.266,0.097,0.398
		c0.034,0.135,0.063,0.27,0.104,0.403c0.039,0.131,0.089,0.257,0.135,0.385c0.047,0.133,0.091,0.266,0.144,0.395
		c0.05,0.119,0.108,0.234,0.163,0.351c0.062,0.133,0.122,0.267,0.191,0.397c0.06,0.111,0.128,0.217,0.192,0.326
		c0.077,0.128,0.149,0.258,0.233,0.383c0.078,0.117,0.165,0.226,0.249,0.338c0.081,0.109,0.156,0.219,0.243,0.325
		c0.147,0.18,0.306,0.351,0.468,0.518c0.032,0.032,0.057,0.068,0.089,0.099c0.03,0.029,0.063,0.055,0.093,0.084
		c0.169,0.164,0.342,0.324,0.524,0.474c0.099,0.081,0.203,0.151,0.304,0.227c0.119,0.09,0.236,0.182,0.361,0.266
		c0.117,0.078,0.239,0.145,0.359,0.217c0.117,0.07,0.231,0.143,0.351,0.208c0.122,0.064,0.246,0.119,0.369,0.178
		c0.126,0.06,0.25,0.122,0.379,0.176c0.12,0.05,0.243,0.09,0.366,0.134c0.137,0.05,0.273,0.102,0.414,0.144
		c0.122,0.037,0.245,0.064,0.367,0.095c0.144,0.037,0.287,0.077,0.433,0.106c0.144,0.028,0.288,0.045,0.433,0.066
		c0.127,0.019,0.253,0.043,0.381,0.055c0.277,0.027,0.555,0.042,0.833,0.042h125.656c0.278,0,0.556-0.015,0.833-0.042
		c0.129-0.012,0.254-0.037,0.381-0.055c0.145-0.021,0.289-0.037,0.433-0.066c0.146-0.029,0.289-0.07,0.433-0.106
		c0.123-0.03,0.246-0.057,0.367-0.095c0.141-0.043,0.278-0.095,0.415-0.145c0.122-0.044,0.244-0.083,0.365-0.133
		c0.129-0.054,0.254-0.117,0.38-0.177c0.123-0.059,0.248-0.113,0.369-0.177c0.12-0.065,0.234-0.138,0.351-0.208
		c0.12-0.072,0.242-0.14,0.359-0.217c0.125-0.083,0.241-0.176,0.361-0.266c0.101-0.075,0.205-0.146,0.304-0.227
		c0.182-0.15,0.356-0.309,0.524-0.474c0.03-0.029,0.063-0.054,0.093-0.084c0.032-0.032,0.059-0.068,0.089-0.099
		c0.162-0.167,0.321-0.338,0.468-0.518c0.087-0.106,0.162-0.216,0.243-0.325c0.083-0.113,0.171-0.222,0.249-0.338
		c0.083-0.125,0.156-0.255,0.233-0.383c0.064-0.108,0.133-0.214,0.192-0.326c0.07-0.129,0.128-0.262,0.19-0.395
		c0.055-0.117,0.114-0.233,0.164-0.353c0.054-0.129,0.097-0.261,0.144-0.393c0.046-0.128,0.096-0.255,0.135-0.386
		c0.04-0.133,0.07-0.268,0.104-0.403c0.033-0.133,0.071-0.262,0.097-0.398c0.032-0.159,0.051-0.318,0.073-0.478
		c0.016-0.113,0.037-0.224,0.048-0.338c0.028-0.28,0.043-0.56,0.042-0.842V101.28C167.854,100.999,167.839,100.719,167.811,100.439z
		 M84.65,164.102l-42.452,42.453v-84.904L84.65,164.102z M54.134,109.714h84.904l-42.452,42.452L54.134,109.714z M96.586,176.039
		l42.452,42.452H54.134L96.586,176.039z M108.523,164.102l42.452-42.452v84.904L108.523,164.102z"/>
</g>
</svg>