<?xml version="1.0" encoding="utf-8"?>
<svg xmlns="http://www.w3.org/2000/svg" viewBox="0 0 500 500">
  <ellipse style="fill: rgb(241, 255, 139);" cx="249.81" cy="256.664" rx="238.385" ry="238.385"/>
  <g id="Sister" transform="matrix(0.799899, 0, 0, 0.799899, 38.945234, 103.748279)" style="">
    <path d="M 438.682 340.496 C 447.621 336.383 453.832 327.353 453.832 316.869 C 453.832 304.499 445.19 294.154 433.617 291.523 C 439.825 286.771 443.832 279.289 443.832 270.869 C 443.832 256.51 432.191 244.869 417.832 244.869 C 417.597 244.869 417.364 244.88 417.131 244.887 C 423.614 240.158 427.832 232.508 427.832 223.869 C 427.832 209.51 416.191 197.869 401.832 197.869 C 387.473 197.869 375.832 209.51 375.832 223.869 C 375.832 238.228 387.473 249.869 401.832 249.869 C 402.066 249.869 402.299 249.857 402.533 249.851 C 396.049 254.579 391.832 262.229 391.832 270.869 C 391.832 283.238 400.473 293.583 412.046 296.215 C 405.839 300.966 401.832 308.447 401.832 316.869 C 401.832 327.485 408.198 336.609 417.319 340.648 C 407.341 344.973 400.09 355.075 399.125 367.119 C 399.006 368.599 400.104 369.869 401.48 369.869 L 454.89 369.869 C 456.268 369.869 457.365 368.599 457.244 367.119 C 456.269 354.928 448.85 344.73 438.682 340.496 Z" fill="#5B412C"/>
    <path d="M 128.255 197.87 C 113.896 197.87 102.255 209.511 102.255 223.87 C 102.255 232.509 106.473 240.159 112.956 244.888 C 112.723 244.881 112.49 244.87 112.255 244.87 C 97.896 244.87 86.255 256.511 86.255 270.87 C 86.255 279.29 90.262 286.772 96.47 291.524 C 84.897 294.155 76.255 304.5 76.255 316.87 C 76.255 327.354 82.465 336.384 91.405 340.497 C 81.237 344.73 73.818 354.929 72.84 367.12 C 72.722 368.6 73.819 369.87 75.196 369.87 L 128.606 369.87 C 129.984 369.87 131.081 368.6 130.961 367.12 C 129.995 355.076 122.744 344.974 112.767 340.649 C 121.888 336.61 128.254 327.486 128.254 316.87 C 128.254 308.448 124.247 300.967 118.04 296.216 C 129.613 293.584 138.254 283.239 138.254 270.87 C 138.254 262.23 134.037 254.58 127.553 249.852 C 127.787 249.858 128.02 249.87 128.254 249.87 C 142.613 249.87 154.254 238.229 154.254 223.87 C 154.254 209.511 142.615 197.87 128.255 197.87 Z" fill="#5B412C"/>
    <circle cx="125.774" cy="171.808" fill="#FFBF94" r="36.537"/>
    <path d="M 125.775 194.165 C 108.022 194.165 93.233 181.503 89.931 164.718 C 89.48 167.012 89.238 169.381 89.238 171.808 C 89.238 191.986 105.596 208.344 125.775 208.344 C 145.954 208.344 162.311 191.986 162.311 171.808 C 162.311 169.381 162.069 167.012 161.618 164.718 C 158.317 181.503 143.527 194.165 125.775 194.165 Z" fill="#ED9572"/>
    <circle cx="404.313" cy="171.808" fill="#FFBF94" r="36.537"/>
    <path d="M 404.313 194.165 C 386.561 194.165 371.771 181.503 368.47 164.718 C 368.019 167.012 367.777 169.381 367.777 171.808 C 367.777 191.986 384.134 208.344 404.313 208.344 C 424.492 208.344 440.85 191.986 440.85 171.808 C 440.85 169.381 440.608 167.012 440.157 164.718 C 436.855 181.503 422.064 194.165 404.313 194.165 Z" fill="#ED9572"/>
    <circle cx="265.044" cy="100.37" fill="#5B412C" r="150.5"/>
    <path d="M 377.925 387.987 C 377.925 450.331 152.163 450.331 152.163 387.987 C 152.163 325.645 202.701 275.106 265.044 275.106 C 327.387 275.106 377.925 325.645 377.925 387.987 Z" fill="#D1375F"/>
    <path d="M 265.043 275.106 C 209.321 275.106 163.035 315.482 153.831 368.573 C 173.25 418.989 356.836 418.989 376.255 368.573 C 367.052 315.482 320.766 275.106 265.043 275.106 Z" fill="#EF5B7B"/>
    <circle cx="265.044" cy="291.233" fill="#FFBF94" r="44.716"/>
    <path d="M 265.043 246.516 C 245.103 246.516 228.217 259.573 222.451 277.6 C 228.217 295.627 245.102 308.683 265.043 308.683 C 284.984 308.683 301.87 295.627 307.635 277.6 C 301.87 259.573 284.984 246.516 265.043 246.516 Z" fill="#ED9572"/>
    <path d="M 393.04 117.276 C 390.183 49.05 337.268 -5.39 265.074 -5.42 L 265.074 -5.421 C 265.064 -5.421 265.054 -5.421 265.044 -5.421 C 265.034 -5.421 265.024 -5.421 265.014 -5.421 L 265.014 -5.42 C 192.821 -5.39 139.906 49.051 137.048 117.276 L 136.924 117.276 L 136.924 195.802 L 137.048 195.802 C 139.905 264.026 197.179 296.666 265.014 296.686 C 265.025 296.686 265.035 296.686 265.044 296.686 C 265.055 296.686 265.065 296.686 265.074 296.686 C 332.909 296.666 390.183 264.026 393.04 195.802 L 393.164 195.802 L 393.164 117.276 L 393.04 117.276 Z" fill="#FFBF94"/>
    <path d="M 152.163 387.987 C 152.163 405.041 169.063 417.423 193.607 425.146 L 193.607 300.609 C 168.315 321.309 152.163 352.755 152.163 387.987 Z" fill="#E89C21"/>
    <path d="M 377.925 387.987 C 377.925 356.186 364.768 327.465 343.607 306.949 L 343.607 422.694 C 364.237 414.904 377.925 403.336 377.925 387.987 Z" fill="#E89C21"/>
    <path d="M 153.832 368.573 C 158.651 381.084 173.586 390.487 193.607 396.788 L 193.607 300.605 C 173.069 317.415 158.557 341.312 153.832 368.573 Z" fill="#FFC866"/>
    <path d="M 376.256 368.573 C 372.097 344.583 360.359 323.197 343.607 306.953 L 343.607 394.329 C 360.011 388.131 372.028 379.549 376.256 368.573 Z" fill="#FFC866"/>
    <circle cx="183.246" cy="206.162" fill="#F97A7A" r="30.538"/>
    <circle cx="346.842" cy="206.162" fill="#F97A7A" r="30.538"/>
    <circle cx="217.088" cy="152.721" fill="#493E2F" r="17.45"/>
    <circle cx="313.188" cy="152.721" fill="#493E2F" r="17.45"/>
    <path d="M 265.588 230.041 C 256.511 230.041 247.434 226.586 240.524 219.676 C 238.181 217.332 238.181 213.533 240.524 211.19 C 242.867 208.848 246.667 208.848 249.009 211.19 C 258.153 220.335 273.027 220.333 282.169 211.19 C 284.512 208.848 288.312 208.848 290.654 211.19 C 292.997 213.534 292.997 217.333 290.654 219.676 C 283.743 226.586 274.666 230.041 265.588 230.041 Z" fill="#F97A7A"/>
    <path d="M 137.35 119.87 C 130.762 119.87 125.518 113.804 126.086 106.721 C 132.258 29.747 192.115 -30.652 265.043 -30.652 C 337.972 -30.652 397.829 29.747 404.001 106.72 C 404.569 113.803 399.325 119.869 392.736 119.869 L 137.35 119.869 L 137.35 119.87 Z" fill="#7C4E2E"/>
  </g>
</svg>