<?xml version="1.0" encoding="utf-8"?>
<svg xmlns="http://www.w3.org/2000/svg" viewBox="0 0 500 500">
  <ellipse style="fill: rgb(228, 229, 255);" cx="249.81" cy="256.664" rx="238.385" ry="238.385"/>
  <g id="Layer_1" transform="matrix(0.752089, 0, 0, 0.752089, -12.968221, 126.257282)" style="">
    <path style="fill:#F3D49D;" d="M 345.008 -71.348 C 55.199 -71.348 140.289 417.121 345.008 417.121 C 549.727 417.121 634.817 -71.348 345.008 -71.348 Z"/>
    <path style="fill:#EEBF70;" d="M 345.008 -71.348 C 345.008 86.049 345.008 327.309 345.008 417.121 C 549.727 417.121 634.817 -71.348 345.008 -71.348 Z"/>
    <path style="fill:#92E5EA;" d="M 601.008 269.86 L 388.159 269.86 L 345.008 223.65 L 301.856 269.86 L 89.008 269.86 L 89.008 50.365 L 601.008 50.365 L 601.008 269.86 Z"/>
    <path style="fill:#79BBBC;" d="M 601.008 269.86 L 388.159 269.86 L 345.008 223.65 L 345.008 50.365 L 601.008 50.365 L 601.008 269.86 Z"/>
    <rect x="294.233" y="310.275" style="fill:#6F6F6F;" width="101.556" height="34.079"/>
    <rect x="345.011" y="310.275" style="fill:#444444;" width="50.778" height="34.079"/>
    <rect y="50.364" style="fill:#79BBBC;" width="511.995" height="71.369" x="89.008"/>
    <rect x="345.011" y="50.364" style="fill:#466F70;" width="256.003" height="71.369"/>
  </g>
</svg>