<?xml version="1.0" encoding="utf-8"?>
<svg xmlns="http://www.w3.org/2000/svg" viewBox="0 0 500 500">
  <ellipse style="fill: rgb(249, 231, 213);" cx="250" cy="250" rx="238.385" ry="238.385"/>
  <g id="Uploaded to svgrepo.com" transform="matrix(10.401181, 0, 0, 10.401181, -1540.302414, -2585.965653)" style="">
    <g transform="matrix(1, 0, 0, 1, 156.124913, 256.658028)">
      <path class="cubies_dertien" d="M32,26H0V3c0-1.657,1.343-3,3-3h26c1.657,0,3,1.343,3,3V26z" style="fill: rgb(164, 200, 63);"/>
      <path class="cubies_veertien" d="M30,26H0V3c0-1.657,1.343-3,3-3h24c1.657,0,3,1.343,3,3V26z" style="fill: rgb(188, 210, 105);"/>
      <path class="cubies_zeven" d="M32,26H0l0,3c0,1.657,1.343,3,3,3h26c1.657,0,3-1.343,3-3V26z" style="fill: rgb(114, 90, 72);"/>
      <path class="cubies_acht" d="M30,26H0l0,3c0,1.657,1.343,3,3,3h24c1.657,0,3-1.343,3-3V26z" style="fill: rgb(142, 120, 102);"/>
      <path class="cubies_twaalf" d="M5,21c0.553,0,1-0.447,1-1v-7h2v7c0,0.553,0.447,1,1,1s1-0.447,1-1V6c0-1.654-1.346-3-3-3 S4,4.346,4,6v14C4,20.553,4.447,21,5,21z M6,6c0-0.552,0.448-1,1-1s1,0.448,1,1v5H6V6z M24,8V6c0-0.552-0.448-1-1-1s-1,0.448-1,1 v12c0,0.552,0.448,1,1,1s1-0.448,1-1v-2c0-0.553,0.447-1,1-1s1,0.447,1,1v2c0,1.654-1.346,3-3,3s-3-1.346-3-3V6 c0-1.654,1.346-3,3-3s3,1.346,3,3v2c0,0.553-0.447,1-1,1S24,8.553,24,8z M16,25c0,0.552-0.448,1-1,1H5c-0.552,0-1-0.448-1-1 c0-0.552,0.448-1,1-1h10C15.552,24,16,24.448,16,25z M15,3h-2c-0.553,0-1,0.447-1,1v16c0,0.553,0.447,1,1,1h2c1.654,0,3-1.346,3-3 v-4c0-0.768-0.29-1.469-0.766-2C17.71,11.469,18,10.768,18,10V6C18,4.346,16.654,3,15,3z M16,18c0,0.552-0.448,1-1,1h-1v-6h1 c0.552,0,1,0.448,1,1V18z M16,10c0,0.552-0.448,1-1,1h-1V5h1c0.552,0,1,0.448,1,1V10z" style="fill: rgb(255, 242, 223);"/>
    </g>
  </g>
</svg>