<?xml version="1.0" encoding="utf-8"?>
<!-- Uploaded to: SVG Repo, www.svgrepo.com, Generator: SVG Repo Mixer Tools -->
<svg version="1.1" id="Uploaded to svgrepo.com" xmlns="http://www.w3.org/2000/svg" xmlns:xlink="http://www.w3.org/1999/xlink" 
	 width="800px" height="800px" viewBox="0 0 32 32" xml:space="preserve">
<style type="text/css">
	.pictogram_vier{fill:#E54D2E;}
	.pictogram_een{fill:#F4D6B0;}
	.pictogram_twee{fill:#F8AD89;}
	.pictogram_zes{fill:#0C6667;}
	.pictogram_vijf{fill:#01A59C;}
	.pictogram_drie{fill:#F27261;}
</style>
<g>
	<circle class="pictogram_zes" cx="16" cy="16" r="16"/>
	<path class="pictogram_zes" d="M12.709,10.318c0,1.813,1.47,3.282,3.282,3.282V7.036C14.179,7.036,12.709,8.506,12.709,10.318z"/>
	<path class="pictogram_drie" d="M10.463,20.015H21.52c0.213,0,0.415,0.045,0.598,0.125c0.004-0.156,0.007-0.299,0.007-0.331
		c0-1.161-0.652-2.158-1.603-2.679c0.36-0.698,0.566-1.488,0.566-2.328V7.814L16,2.813l-5.106,5.001v6.989
		c0,0.84,0.207,1.63,0.566,2.328c-0.951,0.521-1.603,1.519-1.603,2.679c0,0.032,0.003,0.175,0.007,0.331
		C10.048,20.06,10.25,20.015,10.463,20.015z M15.991,7.036c1.813,0,3.282,1.47,3.282,3.282c0,1.813-1.47,3.282-3.282,3.282
		c-1.813,0-3.282-1.47-3.282-3.282C12.709,8.506,14.179,7.036,15.991,7.036z"/>
	<polygon class="pictogram_zes" points="15.982,19.899 15.991,19.899 15.982,19.899 	"/>
	<path class="pictogram_zes" d="M13.873,23l1.461,9.043c0.223,0.009,0.441,0.034,0.666,0.034c0.223,0,0.443-0.012,0.664-0.021
		L18.127,23H13.873z"/>
	<polygon class="pictogram_zes" points="16,19.899 16,19.899 15.991,19.899 	"/>
	<path class="pictogram_vijf" d="M19.274,10.318c0,1.813-1.47,3.282-3.282,3.282V7.036C17.804,7.036,19.274,8.506,19.274,10.318z
		 M31.723,13.167c-1.234,0.328-2.277,1.12-2.943,2.175C28.225,15.129,27.629,15,27,15c-2.419,0-4.436,1.718-4.899,4h-0.085
		c0.071,0.257,0.11,0.529,0.11,0.809c0,0.032-0.003,0.175-0.007,0.331l0,0c0.526,0.231,0.894,0.756,0.894,1.367
		c0,0.705-0.489,1.295-1.146,1.451L22.196,25h7.085C30.997,22.451,32,19.381,32,16.077C32,15.082,31.897,14.112,31.723,13.167z
		 M8,11.03v-0.06c0-1.35-0.907-2.477-2.14-2.838C5.945,7.767,6,7.391,6,7c0-0.997-0.3-1.921-0.803-2.701
		C2.492,6.781,0.647,10.174,0.15,14h4.88C6.67,14,8,12.67,8,11.03z"/>
	<path class="pictogram_een" d="M12,23v8.476c-1.068-0.275-2.09-0.655-3.059-1.133l1.192-7.379C10.239,22.987,10.349,23,10.463,23
		H12z M18.127,23l-1.448,8.966c1.143-0.048,2.253-0.215,3.321-0.49V23H18.127z"/>
	<path class="pictogram_twee" d="M13.873,23l1.448,8.966c-1.143-0.048-2.253-0.215-3.321-0.49V23H13.873z M21.867,22.959
		C21.755,22.986,21.639,23,21.52,23H20v8.476c1.068-0.275,2.09-0.655,3.059-1.133L21.867,22.959z"/>
	<path class="pictogram_vier" d="M21.52,20.015h-5.484h-5.573c-0.824,0-1.492,0.668-1.492,1.492c0,0.824,0.668,1.492,1.492,1.492
		h5.573h5.484c0.824,0,1.492-0.668,1.492-1.492C23.012,20.684,22.344,20.015,21.52,20.015z"/>
	<path class="pictogram_vier" d="M21.52,20.015h-5.484h-5.573c-0.824,0-1.492,0.668-1.492,1.492c0,0.824,0.668,1.492,1.492,1.492
		h5.573h5.484c0.824,0,1.492-0.668,1.492-1.492C23.012,20.684,22.344,20.015,21.52,20.015z"/>
</g>
</svg>