<?xml version="1.0" encoding="iso-8859-1"?>
<!-- Uploaded to: SVG Repo, www.svgrepo.com, Generator: SVG Repo Mixer Tools -->
<svg version="1.1" id="Layer_1" xmlns="http://www.w3.org/2000/svg" xmlns:xlink="http://www.w3.org/1999/xlink" 
	 viewBox="0 0 512.001 512.001" xml:space="preserve">
<circle style="fill:#999999;" cx="256" cy="256" r="256"/>
<polygon style="fill:#FFFFFF;" points="350.44,437.337 120.001,437.337 120.001,74.664 392,74.664 392,395.776 "/>
<polygon style="fill:#CCCCCC;" points="350.44,437.337 350.44,395.776 392,395.776 "/>
<path style="fill:#3B3B3B;" d="M154.16,296.864L316.8,167.368l-7-8.864L340.384,154l-11.504,28.8l-7-8.864L160.168,303.8
	C160.168,303.8,154.4,296.968,154.16,296.864z"/>
<rect x="193.477" y="322.519" style="fill:#E21B1B;" width="21.44" height="35.664"/>
<g>
	<rect x="157.733" y="340.321" style="fill:#3B3B3B;" width="21.44" height="17.792"/>
	<rect x="229.202" y="298.37" style="fill:#3B3B3B;" width="21.44" height="59.813"/>
</g>
<rect x="264.937" y="266.919" style="fill:#E21B1B;" width="21.44" height="91.264"/>
<rect x="300.661" y="238.557" style="fill:#3B3B3B;" width="21.44" height="119.627"/>
<rect x="336.396" y="200.252" style="fill:#E21B1B;" width="21.44" height="158.081"/>
</svg>