<?xml version="1.0" encoding="iso-8859-1"?>
<!-- Uploaded to: SVG Repo, www.svgrepo.com, Generator: SVG Repo Mixer Tools -->
<svg version="1.1" id="Layer_1" xmlns="http://www.w3.org/2000/svg" xmlns:xlink="http://www.w3.org/1999/xlink" 
	 viewBox="0 0 512 512" xml:space="preserve">
<circle style="fill:#FFD15D;" cx="256" cy="256" r="256"/>
<path style="fill:#F9B54C;" d="M502.67,324.673L268.067,90.071l-21.904,219.172l-37.362,110.04l89.255,89.255
	C396.703,492.234,476.313,419.543,502.67,324.673z"/>
<rect x="243.933" y="90.074" style="fill:#935635;" width="24.135" height="28.444"/>
<rect x="256" y="90.074" style="fill:#804000;" width="12.067" height="28.444"/>
<path style="fill:#255E2D;" d="M270.222,167.646v-54.734h-28.444v54.734c0,20.421-6.623,40.293-18.877,56.63l-4.913,6.551
	c-12.254,16.337-18.877,36.209-18.877,56.63v110.187c0,16.027,12.993,29.019,29.02,29.019h55.739
	c16.027,0,29.019-12.993,29.019-29.019V287.458c0-20.421-6.623-40.293-18.877-56.63l-4.913-6.551
	C276.845,207.939,270.222,188.069,270.222,167.646z"/>
<path style="fill:#1D4921;" d="M294.012,230.828l-4.913-6.551c-12.254-16.337-18.877-36.209-18.877-56.63v-54.734H256v313.751
	h27.869c16.027,0,29.018-12.993,29.018-29.019V287.458C312.889,267.036,306.264,247.165,294.012,230.828z"/>
<rect x="213.333" y="284.444" style="fill:#FC6F58;" width="85.333" height="85.333"/>
<rect x="256" y="284.444" style="fill:#F1543F;" width="42.667" height="85.333"/>
</svg>