<?xml version="1.0" encoding="utf-8"?>
<svg version="1.1" id="Layer_1" xmlns="http://www.w3.org/2000/svg" x="0px" y="0px" viewBox="0 0 256 256" style="enable-background:new 0 0 256 256;">
  <style type="text/css">
	.st0{fill:#382B73;}
	.st1{fill:#473080;}
	.st2{fill:#E6E7E8;}
	.st3{fill:#FFFFFF;}
	.st4{fill:#E43D91;}
	.st5{fill:#EF5A9D;}
	.st6{fill:#BCBEC0;}
	.st7{fill:#D1D3D4;}
	.st8{fill:#A72973;}
	.st9{fill:#F06EA9;}
	.st10{fill:#F7CB15;}
	.st11{fill:#FFF335;}
	.st12{fill:#FEDE3A;}
	.st13{fill:#1CAEE4;}
	.st14{fill:#009ADD;}
</style>
  <g style="" transform="matrix(1.56037, 0, 0, 1.42397, -72.1562, -61.0627)">
    <g>
      <g/>
      <g>
        <path class="st0" d="M176.003,163.082c-0.123-0.315-0.284-0.613-0.479-0.888c-0.195-0.275-0.425-0.528-0.685-0.751 c-0.13-0.111-0.268-0.215-0.413-0.311l-5.337-3.515l-9.917-6.533c2.705-19.918,1.61-40.199-3.279-59.757 c-0.638-2.553-1.568-5.016-2.75-7.353c-0.018-0.035-0.036-0.071-0.053-0.106c-0.264-0.518-0.541-1.03-0.831-1.535 c-0.046-0.08-0.09-0.161-0.137-0.241c-0.268-0.459-0.548-0.911-0.837-1.358c-0.067-0.105-0.131-0.211-0.2-0.315 c-0.351-0.529-0.713-1.052-1.092-1.563l-18.956-25.522c-0.62-0.834-1.475-1.355-2.389-1.564 c-1.524-0.348-3.212,0.174-4.244,1.564l-18.956,25.522c-0.38,0.511-0.742,1.035-1.093,1.564 c-0.068,0.103-0.13,0.208-0.197,0.311c-0.29,0.449-0.571,0.902-0.84,1.363c-0.046,0.079-0.09,0.159-0.135,0.238 c-0.29,0.506-0.568,1.018-0.832,1.537c-0.018,0.035-0.036,0.071-0.053,0.106c-1.182,2.337-2.112,4.8-2.75,7.353 c-4.902,19.609-5.992,39.945-3.259,59.914l-4.342,2.86l-10.674,7.031c-1.015,0.669-1.677,1.745-1.826,2.935 c-0.021,0.17-0.032,0.342-0.032,0.516v2.962v1.74v4.304c0,0.285,0.029,0.564,0.084,0.833c0.385,1.883,2.051,3.299,4.048,3.299 h21.099l0,0h2.409h0.15l1.736,4.014l0,0l1.187,2.745c0.751,1.736,2.086,2.794,3.525,2.794h4.877h18.646h4.877 c1.439,0,2.774-1.058,3.525-2.794l1.187-2.745l0,0l0.329-0.761l1.407-3.253h0.15h2.15l0,0h21.357 c1.426,0,2.683-0.723,3.426-1.822c0.446-0.659,0.706-1.454,0.706-2.31v-4.304v-1.74v-2.962 C176.285,164.061,176.187,163.554,176.003,163.082z"/>
        <path class="st0" d="M137.117,191.248c-0.184-0.009-0.368-0.016-0.555-0.01c-0.028,0.001-0.054,0.006-0.081,0.007 c-0.043,0.001-0.085-0.003-0.128-0.001c-1.458,0.07-2.815,0.51-4.001,1.216c-1.231-0.72-2.645-1.156-4.16-1.213 c-0.105-0.005-0.212-0.005-0.319-0.005c-0.03-0.001-0.059-0.008-0.09-0.008c-0.015,0-0.029,0.005-0.043,0.005 c-0.039,0.001-0.076-0.003-0.116-0.002c-0.028,0.001-0.055,0.006-0.083,0.007c-0.044,0.001-0.087-0.003-0.132-0.001 c-1.458,0.07-2.815,0.51-4.001,1.216c-1.236-0.723-2.657-1.159-4.179-1.213c-0.184-0.009-0.368-0.016-0.555-0.01 c-0.027,0.001-0.054,0.006-0.081,0.007c-0.043,0.001-0.085-0.003-0.127-0.001c-4.876,0.233-8.657,4.549-8.497,9.429 c0.168,5.149,2.907,11.173,5.308,15.511c1.582,2.858,5.666,2.868,7.249,0.011c0.28-0.506,0.565-1.038,0.85-1.587 c0.283,0.545,0.566,1.072,0.845,1.576c1.582,2.858,5.667,2.868,7.249,0.011c0.28-0.506,0.565-1.038,0.85-1.587 c0.283,0.545,0.566,1.072,0.845,1.576c1.582,2.858,5.667,2.868,7.249,0.011c2.48-4.479,5.322-10.759,5.322-16.017 C145.736,195.348,141.905,191.42,137.117,191.248z"/>
      </g>
      <g>
        <path class="st2" d="M150.796,170.721h-46.154c-1.971,0-3.667-1.392-4.052-3.325l-2.728-13.709 c-4.569-22.96-3.994-46.648,1.684-69.359l0,0c1.126-4.505,3.132-8.743,5.9-12.472l18.956-25.522 c1.652-2.224,4.982-2.224,6.633,0l18.956,25.522c2.769,3.728,4.774,7.966,5.9,12.472l0,0 c5.678,22.711,6.253,46.399,1.684,69.359l-2.728,13.709C154.464,169.329,152.767,170.721,150.796,170.721z"/>
        <path class="st3" d="M140.728,170.721H114.71c-1.111,0-2.067-1.392-2.284-3.325l-1.538-13.709 c-2.576-22.96-2.252-46.648,0.949-69.359l0,0c0.635-4.505,1.765-8.743,3.326-12.472l10.686-25.522 c0.931-2.224,2.808-2.224,3.739,0l10.686,25.522c1.561,3.728,2.691,7.966,3.326,12.472l0,0 c3.201,22.711,3.525,46.399,0.949,69.359l-1.538,13.709C142.795,169.329,141.839,170.721,140.728,170.721z"/>
        <path class="st4" d="M124.402,46.335l-18.956,25.522c-1.583,2.131-2.907,4.433-3.969,6.852h52.484 c-1.062-2.419-2.386-4.721-3.969-6.852l-18.956-25.522C129.384,44.111,126.054,44.111,124.402,46.335z"/>
        <path class="st5" d="M125.924,46.335l-10.259,25.522c-0.857,2.131-1.573,4.433-2.148,6.852h28.404 c-0.575-2.419-1.291-4.721-2.148-6.852l-10.259-25.522C128.62,44.111,126.818,44.111,125.924,46.335z"/>
        <path class="st6" d="M98.083,154.797l2.507,12.599c0.385,1.933,2.081,3.325,4.052,3.325h46.154c1.971,0,3.668-1.392,4.052-3.325 l2.507-12.599H98.083z"/>
        <path class="st7" d="M143.012,167.396l1.413-12.599h-33.413l1.413,12.599c0.217,1.933,1.173,3.325,2.284,3.325h26.018 C141.839,170.721,142.795,169.329,143.012,167.396z"/>
        <g>
          <path class="st4" d="M142.048,180.275h-28.399c-1.439,0-2.775-1.058-3.525-2.794l-2.923-6.76h41.296l-2.923,6.76 C144.822,179.217,143.487,180.275,142.048,180.275z"/>
          <path class="st5" d="M137.171,180.275h-18.646c-0.945,0-1.822-1.058-2.314-2.794l-1.919-6.76h27.113l-1.919,6.76 C138.993,179.217,138.116,180.275,137.171,180.275z"/>
          <polygon class="st8" points="146.76,174.736 148.496,170.721 107.2,170.721 108.936,174.736 &#9;&#9;&#9;&#9;&#9;"/>
        </g>
        <g>
          <g>
            <path class="st5" d="M172.154,170.721h-23.508l3.405-24.258c0.422-3.005,3.83-4.545,6.364-2.876l16.011,10.546 c1.16,0.764,1.859,2.061,1.859,3.45v9.007C176.285,168.871,174.435,170.721,172.154,170.721z"/>
            <path class="st9" d="M174.426,154.132l-16.011-10.546c-2.448-1.612-5.703-0.225-6.303,2.579 c1.411-0.932,3.352-1.083,4.967-0.061l17.208,10.881c1.247,0.788,1.998,2.126,1.998,3.56v-2.962 C176.285,156.193,175.587,154.897,174.426,154.132z"/>
            <path class="st4" d="M172.154,166.417H149.25l-0.604,4.304h23.508c2.282,0,4.132-1.85,4.132-4.132v-4.304 C176.285,164.568,174.435,166.417,172.154,166.417z"/>
          </g>
          <g>
            <path class="st5" d="M83.543,170.721h23.507l-3.405-24.258c-0.422-3.005-3.83-4.545-6.364-2.876L81.27,154.132 c-1.16,0.764-1.859,2.061-1.859,3.45v9.007C79.411,168.871,81.261,170.721,83.543,170.721z"/>
            <path class="st9" d="M81.27,154.132l16.011-10.546c2.448-1.612,5.703-0.225,6.303,2.579c-1.411-0.932-3.352-1.083-4.967-0.061 l-17.208,10.881c-1.247,0.788-1.998,2.126-1.998,3.56v-2.962C79.411,156.193,80.11,154.897,81.27,154.132z"/>
            <path class="st4" d="M83.543,166.417h22.903l0.604,4.304H83.543c-2.282,0-4.132-1.85-4.132-4.132v-4.304 C79.411,164.568,81.261,166.417,83.543,166.417z"/>
          </g>
        </g>
        <g>
          <path class="st5" d="M127.848,170.721L127.848,170.721c-1.925,0-3.486-1.561-3.486-3.486v-23.842 c0-1.925,1.561-3.486,3.486-3.486l0,0c1.925,0,3.486,1.561,3.486,3.486v23.842C131.334,169.16,129.773,170.721,127.848,170.721 z"/>
          <path class="st9" d="M127.848,139.907c-1.925,0-3.486,1.561-3.486,3.486v3.38c0-1.925,1.561-3.486,3.486-3.486 c1.925,0,3.486,1.561,3.486,3.486v-3.38C131.334,141.467,129.773,139.907,127.848,139.907z"/>
          <path class="st4" d="M127.848,165.633c-1.925,0-3.486-1.561-3.486-3.486v5.088c0,1.925,1.561,3.486,3.486,3.486 c1.925,0,3.486-1.561,3.486-3.486v-5.088C131.334,164.072,129.773,165.633,127.848,165.633z"/>
        </g>
        <g>
          <path class="st10" d="M118.466,184.245c-4.876,0.233-8.657,4.549-8.497,9.429c0.169,5.149,2.907,11.173,5.308,15.511 c1.582,2.858,5.667,2.868,7.249,0.011c2.48-4.479,5.322-10.759,5.322-16.017C127.848,188.093,123.604,183.999,118.466,184.245z "/>
          <path class="st11" d="M118.674,184.238c-3.657,0.124-6.519,3.379-6.383,7.036c0.167,4.482,2.943,9.845,4.844,13.021 c0.804,1.343,2.741,1.329,3.545-0.014c1.961-3.277,4.844-8.87,4.844-13.426C125.525,187.122,122.436,184.111,118.674,184.238z"/>
          <path class="st10" d="M136.353,184.245c-4.876,0.233-8.657,4.549-8.497,9.429c0.169,5.149,2.907,11.173,5.308,15.511 c1.582,2.858,5.667,2.868,7.249,0.011c2.48-4.479,5.322-10.759,5.322-16.017C145.736,188.093,141.492,183.999,136.353,184.245z "/>
          <path class="st11" d="M136.562,184.238c-3.657,0.124-6.519,3.379-6.383,7.036c0.167,4.482,2.943,9.845,4.844,13.021 c0.804,1.343,2.741,1.329,3.545-0.014c1.961-3.277,4.844-8.87,4.844-13.426C143.413,187.122,140.323,184.111,136.562,184.238z"/>
          <path class="st10" d="M127.41,184.245c-4.877,0.233-8.657,4.549-8.497,9.429c0.169,5.149,2.907,11.173,5.308,15.511 c1.582,2.858,5.667,2.868,7.249,0.011c2.48-4.479,5.322-10.759,5.322-16.017C136.792,188.093,132.548,183.999,127.41,184.245z"/>
          <path class="st12" d="M127.625,184.238c-3.532,0.119-6.322,3.245-6.21,6.777c0.136,4.335,2.808,9.534,4.665,12.648 c0.802,1.344,2.743,1.333,3.545-0.011c1.906-3.198,4.664-8.584,4.664-12.979C134.288,187.043,131.283,184.114,127.625,184.238z "/>
          <path class="st11" d="M127.783,184.235c-2.093,0.035-3.809,1.865-3.769,3.958c0.053,2.737,1.84,6.078,2.956,7.904 c0.403,0.659,1.358,0.653,1.76-0.006c1.132-1.854,2.953-5.265,2.953-8.02C131.683,185.93,129.931,184.199,127.783,184.235z"/>
        </g>
        <g>
          <circle class="st13" cx="128" cy="109.226" r="25.961"/>
          <g>
            <path class="st14" d="M130.356,90.397h-0.739c-0.316,0-0.597-0.204-0.695-0.505l-0.228-0.702 c-0.219-0.673-1.171-0.673-1.389,0l-0.228,0.702c-0.098,0.301-0.378,0.505-0.695,0.505h-0.739 c-0.708,0-1.002,0.905-0.429,1.321l0.598,0.434c0.256,0.186,0.363,0.516,0.265,0.817l-0.228,0.702 c-0.219,0.673,0.552,1.232,1.124,0.816l0.598-0.434c0.256-0.186,0.603-0.186,0.859,0l0.597,0.434 c0.572,0.416,1.343-0.144,1.124-0.816l-0.228-0.702c-0.098-0.301,0.009-0.631,0.265-0.817l0.597-0.434 C131.358,91.302,131.064,90.397,130.356,90.397z"/>
            <path class="st14" d="M134.837,95.337l-0.228,0.702c-0.219,0.673,0.551,1.232,1.124,0.817l0.598-0.434 c0.256-0.186,0.603-0.186,0.859,0l0.598,0.434c0.572,0.416,1.343-0.144,1.124-0.817l-0.228-0.702 c-0.098-0.301,0.009-0.631,0.265-0.817l0.598-0.434c0.573-0.416,0.278-1.321-0.429-1.321h-0.739 c-0.316,0-0.597-0.204-0.695-0.505l-0.228-0.702c-0.219-0.673-1.171-0.673-1.389,0l-0.228,0.702 c-0.098,0.301-0.378,0.505-0.695,0.505h-0.739c-0.708,0-1.002,0.905-0.429,1.321l0.598,0.434 C134.828,94.706,134.935,95.036,134.837,95.337z"/>
            <path class="st14" d="M121.452,92.765h-0.739c-0.316,0-0.597-0.204-0.694-0.505l-0.228-0.702 c-0.219-0.673-1.171-0.673-1.389,0l-0.228,0.702c-0.098,0.301-0.378,0.505-0.695,0.505h-0.739 c-0.708,0-1.002,0.905-0.429,1.321l0.598,0.434c0.256,0.186,0.363,0.516,0.265,0.817l-0.228,0.702 c-0.218,0.673,0.551,1.232,1.124,0.817l0.597-0.434c0.256-0.186,0.603-0.186,0.859,0l0.598,0.434 c0.572,0.416,1.342-0.144,1.124-0.817l-0.228-0.702c-0.098-0.301,0.009-0.631,0.265-0.817l0.597-0.434 C122.454,93.67,122.16,92.765,121.452,92.765z"/>
            <path class="st14" d="M108.727,101.103l0.598,0.434c0.256,0.186,0.363,0.516,0.265,0.816l-0.228,0.703 c-0.219,0.673,0.552,1.232,1.124,0.816l0.598-0.434c0.256-0.186,0.603-0.186,0.859,0l0.598,0.434 c0.572,0.416,1.342-0.144,1.124-0.816l-0.228-0.703c-0.098-0.301,0.009-0.63,0.265-0.816l0.598-0.434 c0.572-0.416,0.278-1.321-0.429-1.321h-0.739c-0.316,0-0.597-0.204-0.695-0.505l-0.228-0.702 c-0.219-0.673-1.171-0.673-1.389,0l-0.228,0.702c-0.098,0.301-0.378,0.505-0.695,0.505h-0.739 C108.449,99.782,108.154,100.688,108.727,101.103z"/>
            <path class="st14" d="M141.623,101.103l0.598,0.434c0.256,0.186,0.363,0.516,0.265,0.816l-0.228,0.703 c-0.219,0.673,0.551,1.232,1.124,0.816l0.598-0.434c0.256-0.186,0.603-0.186,0.859,0l0.598,0.434 c0.572,0.416,1.343-0.144,1.124-0.816l-0.228-0.703c-0.098-0.301,0.009-0.63,0.265-0.816l0.598-0.434 c0.572-0.416,0.278-1.321-0.429-1.321h-0.739c-0.316,0-0.597-0.204-0.694-0.505l-0.228-0.702 c-0.219-0.673-1.171-0.673-1.389,0l-0.228,0.702c-0.098,0.301-0.378,0.505-0.695,0.505h-0.739 C141.345,99.782,141.051,100.688,141.623,101.103z"/>
            <path class="st14" d="M130.356,127.456h-0.739c-0.316,0-0.597-0.204-0.695-0.505l-0.228-0.702 c-0.219-0.673-1.171-0.673-1.389,0l-0.228,0.702c-0.098,0.301-0.378,0.505-0.695,0.505h-0.739 c-0.708,0-1.002,0.905-0.429,1.321l0.598,0.434c0.256,0.186,0.363,0.516,0.265,0.816l-0.228,0.702 c-0.219,0.673,0.552,1.232,1.124,0.816l0.598-0.434c0.256-0.186,0.603-0.186,0.859,0l0.597,0.434 c0.572,0.416,1.343-0.144,1.124-0.816l-0.228-0.702c-0.098-0.301,0.009-0.631,0.265-0.816l0.597-0.434 C131.358,128.362,131.064,127.456,130.356,127.456z"/>
            <path class="st14" d="M120.885,124.936h-0.739c-0.316,0-0.597-0.204-0.695-0.505l-0.228-0.702 c-0.219-0.673-1.171-0.673-1.389,0l-0.228,0.702c-0.098,0.301-0.378,0.505-0.695,0.505h-0.738 c-0.708,0-1.002,0.905-0.429,1.321l0.597,0.434c0.256,0.186,0.363,0.516,0.265,0.816l-0.228,0.703 c-0.219,0.673,0.551,1.232,1.124,0.816l0.597-0.434c0.256-0.186,0.603-0.186,0.859,0l0.597,0.434 c0.572,0.416,1.342-0.144,1.124-0.816l-0.228-0.703c-0.098-0.301,0.009-0.631,0.265-0.816l0.597-0.434 C121.887,125.841,121.593,124.936,120.885,124.936z"/>
            <path class="st14" d="M139.982,124.936h-0.739c-0.316,0-0.597-0.204-0.695-0.505l-0.228-0.702 c-0.219-0.673-1.171-0.673-1.389,0l-0.228,0.702c-0.098,0.301-0.378,0.505-0.695,0.505h-0.738 c-0.708,0-1.002,0.905-0.429,1.321l0.597,0.434c0.256,0.186,0.363,0.516,0.265,0.816l-0.228,0.703 c-0.219,0.673,0.551,1.232,1.124,0.816l0.598-0.434c0.256-0.186,0.603-0.186,0.859,0l0.597,0.434 c0.572,0.416,1.342-0.144,1.124-0.816l-0.228-0.703c-0.098-0.301,0.009-0.631,0.265-0.816l0.598-0.434 C140.984,125.841,140.69,124.936,139.982,124.936z"/>
            <path class="st14" d="M148.886,108.927h-0.739c-0.316,0-0.597-0.204-0.695-0.505l-0.228-0.702 c-0.219-0.673-1.171-0.673-1.389,0l-0.228,0.702c-0.098,0.301-0.378,0.505-0.695,0.505h-0.739 c-0.707,0-1.002,0.905-0.429,1.321l0.598,0.434c0.256,0.186,0.363,0.516,0.265,0.817l-0.228,0.702 c-0.219,0.673,0.551,1.232,1.124,0.817l0.597-0.434c0.256-0.186,0.603-0.186,0.859,0l0.598,0.434 c0.572,0.416,1.342-0.144,1.124-0.817l-0.228-0.702c-0.098-0.301,0.009-0.631,0.265-0.817l0.597-0.434 C149.887,109.832,149.593,108.927,148.886,108.927z"/>
            <path class="st14" d="M146.133,118.013h-0.739c-0.316,0-0.597-0.204-0.695-0.505l-0.228-0.703 c-0.219-0.673-1.171-0.673-1.389,0l-0.228,0.703c-0.098,0.301-0.378,0.505-0.695,0.505h-0.739 c-0.708,0-1.002,0.905-0.429,1.321l0.598,0.434c0.256,0.186,0.363,0.516,0.265,0.817l-0.228,0.703 c-0.219,0.673,0.552,1.232,1.124,0.816l0.598-0.434c0.256-0.186,0.603-0.186,0.859,0l0.598,0.434 c0.572,0.416,1.343-0.144,1.124-0.816l-0.228-0.703c-0.098-0.301,0.009-0.631,0.265-0.817l0.598-0.434 C147.135,118.918,146.841,118.013,146.133,118.013z"/>
            <path class="st14" d="M114.67,118.013h-0.739c-0.316,0-0.597-0.204-0.695-0.505l-0.228-0.703 c-0.219-0.673-1.171-0.673-1.389,0l-0.228,0.703c-0.098,0.301-0.378,0.505-0.694,0.505h-0.739 c-0.707,0-1.002,0.905-0.429,1.321l0.598,0.434c0.256,0.186,0.363,0.516,0.265,0.817l-0.228,0.703 c-0.219,0.673,0.551,1.232,1.124,0.816l0.598-0.434c0.256-0.186,0.603-0.186,0.858,0l0.598,0.434 c0.572,0.416,1.342-0.144,1.124-0.816l-0.228-0.703c-0.098-0.301,0.009-0.631,0.265-0.817l0.598-0.434 C115.672,118.918,115.378,118.013,114.67,118.013z"/>
            <path class="st14" d="M109.9,112.584l0.598,0.434c0.573,0.416,1.342-0.144,1.124-0.817l-0.228-0.702 c-0.098-0.301,0.009-0.631,0.265-0.817l0.598-0.434c0.572-0.416,0.278-1.321-0.429-1.321h-0.739 c-0.316,0-0.597-0.204-0.695-0.505l-0.228-0.702c-0.219-0.673-1.171-0.673-1.389,0l-0.228,0.702 c-0.098,0.301-0.378,0.505-0.695,0.505h-0.739c-0.708,0-1.002,0.905-0.429,1.321l0.598,0.434 c0.256,0.186,0.363,0.516,0.265,0.817l-0.228,0.702c-0.219,0.673,0.551,1.232,1.124,0.817l0.598-0.434 C109.297,112.397,109.644,112.397,109.9,112.584z"/>
          </g>
          <g>
            <path class="st3" d="M128.695,88.154l0.228,0.702c0.098,0.301,0.378,0.505,0.695,0.505h0.739c0.708,0,1.002,0.905,0.429,1.321 l-0.597,0.434c-0.256,0.186-0.363,0.516-0.265,0.817l0.228,0.702c0.219,0.673-0.551,1.232-1.124,0.817l-0.597-0.434 c-0.256-0.186-0.603-0.186-0.859,0l-0.598,0.434c-0.572,0.416-1.342-0.144-1.124-0.817l0.228-0.702 c0.098-0.301-0.009-0.631-0.265-0.817l-0.598-0.434c-0.572-0.416-0.278-1.321,0.429-1.321h0.739 c0.316,0,0.597-0.204,0.695-0.505l0.228-0.702C127.524,87.481,128.476,87.481,128.695,88.154z"/>
            <path class="st3" d="M137.454,90.522l0.228,0.702c0.098,0.301,0.378,0.505,0.695,0.505h0.739c0.707,0,1.002,0.905,0.429,1.321 l-0.598,0.434c-0.256,0.186-0.363,0.516-0.265,0.816l0.228,0.702c0.219,0.673-0.551,1.232-1.124,0.817l-0.598-0.434 c-0.256-0.186-0.603-0.186-0.859,0l-0.598,0.434c-0.572,0.416-1.342-0.144-1.124-0.817l0.228-0.702 c0.098-0.301-0.009-0.631-0.265-0.816l-0.598-0.434c-0.572-0.416-0.278-1.321,0.429-1.321h0.739 c0.316,0,0.597-0.204,0.695-0.505l0.228-0.702C136.284,89.849,137.236,89.849,137.454,90.522z"/>
            <path class="st3" d="M119.791,90.522l0.228,0.702c0.098,0.301,0.378,0.505,0.695,0.505h0.739c0.708,0,1.002,0.905,0.429,1.321 l-0.598,0.434c-0.256,0.186-0.363,0.516-0.265,0.816l0.228,0.702c0.219,0.673-0.551,1.232-1.124,0.817l-0.598-0.434 c-0.256-0.186-0.603-0.186-0.859,0l-0.598,0.434c-0.572,0.416-1.343-0.144-1.124-0.817l0.228-0.702 c0.098-0.301-0.009-0.631-0.265-0.816l-0.598-0.434c-0.572-0.416-0.278-1.321,0.429-1.321h0.739 c0.316,0,0.597-0.204,0.695-0.505l0.228-0.702C118.62,89.849,119.572,89.849,119.791,90.522z"/>
            <path class="st3" d="M112.207,97.539l0.228,0.702c0.098,0.301,0.378,0.505,0.695,0.505h0.739c0.707,0,1.002,0.905,0.429,1.321 l-0.598,0.434c-0.256,0.186-0.363,0.516-0.265,0.817l0.228,0.702c0.219,0.673-0.552,1.232-1.124,0.816l-0.598-0.434 c-0.256-0.186-0.603-0.186-0.858,0l-0.598,0.434c-0.572,0.416-1.342-0.144-1.124-0.816l0.228-0.702 c0.098-0.301-0.009-0.631-0.265-0.817l-0.598-0.434c-0.572-0.416-0.278-1.321,0.429-1.321h0.739 c0.316,0,0.597-0.204,0.695-0.505l0.228-0.702C111.036,96.866,111.988,96.866,112.207,97.539z"/>
            <path class="st3" d="M145.103,97.539l0.228,0.702c0.098,0.301,0.378,0.505,0.695,0.505h0.739c0.707,0,1.002,0.905,0.429,1.321 l-0.598,0.434c-0.256,0.186-0.363,0.516-0.265,0.817l0.228,0.702c0.219,0.673-0.551,1.232-1.124,0.816l-0.598-0.434 c-0.256-0.186-0.603-0.186-0.859,0l-0.598,0.434c-0.572,0.416-1.342-0.144-1.124-0.816l0.228-0.702 c0.098-0.301-0.009-0.631-0.265-0.817l-0.598-0.434c-0.572-0.416-0.278-1.321,0.429-1.321h0.739 c0.316,0,0.597-0.204,0.695-0.505l0.228-0.702C143.932,96.866,144.884,96.866,145.103,97.539z"/>
            <path class="st3" d="M128.695,125.213l0.228,0.702c0.098,0.301,0.378,0.505,0.695,0.505h0.739 c0.708,0,1.002,0.905,0.429,1.321l-0.597,0.434c-0.256,0.186-0.363,0.516-0.265,0.816l0.228,0.702 c0.219,0.673-0.551,1.232-1.124,0.816l-0.597-0.434c-0.256-0.186-0.603-0.186-0.859,0l-0.598,0.434 c-0.572,0.416-1.342-0.144-1.124-0.816l0.228-0.702c0.098-0.301-0.009-0.631-0.265-0.816l-0.598-0.434 c-0.572-0.416-0.278-1.321,0.429-1.321h0.739c0.316,0,0.597-0.204,0.695-0.505l0.228-0.702 C127.524,124.54,128.476,124.54,128.695,125.213z"/>
            <path class="st3" d="M119.224,122.692l0.228,0.702c0.098,0.301,0.378,0.505,0.695,0.505h0.739 c0.707,0,1.002,0.905,0.429,1.321l-0.598,0.434c-0.256,0.186-0.363,0.516-0.265,0.816l0.228,0.702 c0.219,0.673-0.551,1.232-1.124,0.817l-0.597-0.434c-0.256-0.186-0.603-0.186-0.859,0l-0.598,0.434 c-0.572,0.416-1.343-0.144-1.124-0.817l0.228-0.702c0.098-0.301-0.009-0.631-0.265-0.816l-0.597-0.434 c-0.572-0.416-0.278-1.321,0.429-1.321h0.739c0.316,0,0.597-0.204,0.694-0.505l0.228-0.702 C118.053,122.02,119.005,122.02,119.224,122.692z"/>
            <path class="st3" d="M138.321,122.692l0.228,0.702c0.098,0.301,0.378,0.505,0.695,0.505h0.739 c0.708,0,1.002,0.905,0.429,1.321l-0.598,0.434c-0.256,0.186-0.363,0.516-0.265,0.816l0.228,0.702 c0.219,0.673-0.551,1.232-1.124,0.817l-0.598-0.434c-0.256-0.186-0.603-0.186-0.859,0l-0.598,0.434 c-0.572,0.416-1.342-0.144-1.124-0.817l0.228-0.702c0.098-0.301-0.009-0.631-0.265-0.816l-0.598-0.434 c-0.572-0.416-0.278-1.321,0.429-1.321h0.739c0.316,0,0.597-0.204,0.695-0.505l0.228-0.702 C137.15,122.02,138.102,122.02,138.321,122.692z"/>
            <g>
              <path class="st3" d="M147.224,106.683l0.228,0.702c0.098,0.301,0.378,0.505,0.695,0.505h0.739 c0.707,0,1.002,0.905,0.429,1.321l-0.598,0.434c-0.256,0.186-0.363,0.516-0.265,0.817l0.228,0.702 c0.219,0.673-0.551,1.232-1.124,0.816l-0.598-0.434c-0.256-0.186-0.603-0.186-0.859,0l-0.598,0.434 c-0.572,0.416-1.342-0.144-1.124-0.816l0.228-0.702c0.098-0.301-0.009-0.631-0.265-0.817l-0.598-0.434 c-0.572-0.416-0.278-1.321,0.429-1.321h0.739c0.316,0,0.597-0.204,0.695-0.505l0.228-0.702 C146.054,106.011,147.005,106.011,147.224,106.683z"/>
              <path class="st3" d="M144.472,115.77l0.228,0.702c0.098,0.301,0.378,0.505,0.695,0.505h0.739 c0.708,0,1.002,0.905,0.429,1.321l-0.598,0.434c-0.256,0.186-0.363,0.516-0.265,0.817l0.228,0.702 c0.219,0.673-0.551,1.232-1.124,0.817l-0.598-0.434c-0.256-0.186-0.603-0.186-0.859,0l-0.598,0.434 c-0.572,0.416-1.342-0.144-1.124-0.817l0.228-0.702c0.098-0.301-0.009-0.631-0.265-0.817l-0.598-0.434 c-0.572-0.416-0.278-1.321,0.429-1.321h0.739c0.316,0,0.597-0.204,0.695-0.505l0.228-0.702 C143.301,115.097,144.253,115.097,144.472,115.77z"/>
              <path class="st3" d="M113.009,115.77l0.228,0.702c0.098,0.301,0.378,0.505,0.695,0.505h0.739 c0.708,0,1.002,0.905,0.429,1.321l-0.598,0.434c-0.256,0.186-0.363,0.516-0.265,0.817l0.228,0.702 c0.219,0.673-0.551,1.232-1.124,0.817l-0.598-0.434c-0.256-0.186-0.603-0.186-0.858,0l-0.598,0.434 c-0.572,0.416-1.342-0.144-1.124-0.817l0.228-0.702c0.098-0.301-0.009-0.631-0.265-0.817l-0.598-0.434 c-0.572-0.416-0.278-1.321,0.429-1.321h0.739c0.316,0,0.597-0.204,0.695-0.505l0.228-0.702 C111.838,115.097,112.79,115.097,113.009,115.77z"/>
              <path class="st3" d="M110.165,106.683l0.228,0.702c0.098,0.301,0.378,0.505,0.694,0.505h0.739 c0.707,0,1.002,0.905,0.429,1.321l-0.598,0.434c-0.256,0.186-0.363,0.516-0.265,0.817l0.228,0.702 c0.219,0.673-0.551,1.232-1.124,0.816l-0.598-0.434c-0.256-0.186-0.603-0.186-0.859,0l-0.597,0.434 c-0.572,0.416-1.343-0.144-1.124-0.816l0.228-0.702c0.098-0.301-0.009-0.631-0.265-0.817l-0.598-0.434 c-0.572-0.416-0.278-1.321,0.429-1.321h0.739c0.316,0,0.597-0.204,0.695-0.505l0.228-0.702 C108.994,106.011,109.946,106.011,110.165,106.683z"/>
            </g>
          </g>
          <g>
            <ellipse transform="matrix(0.1602 -0.9871 0.9871 0.1602 -0.3184 218.0768)" class="st3" cx="128" cy="109.226" rx="10.966" ry="10.966"/>
            <g>
              <g>
                <g>
                  <path class="st7" d="M127.144,115.512c-0.487,0-0.954-0.194-1.299-0.538l-3.591-3.59c-0.717-0.717-0.717-1.88,0-2.597 c0.718-0.717,1.88-0.717,2.597,0l2.292,2.291l4.645-4.645c0.717-0.718,1.88-0.718,2.597,0c0.717,0.717,0.717,1.88,0,2.597 l-5.943,5.944C128.098,115.319,127.632,115.512,127.144,115.512z"/>
                </g>
                <g>
                  <path class="st5" d="M127.144,114.214c-0.487,0-0.954-0.194-1.299-0.538l-3.591-3.59c-0.717-0.717-0.717-1.88,0-2.597 c0.718-0.717,1.88-0.717,2.597,0l2.292,2.291l4.645-4.645c0.717-0.717,1.88-0.717,2.597,0c0.717,0.717,0.717,1.88,0,2.597 l-5.943,5.944C128.098,114.02,127.632,114.214,127.144,114.214z"/>
                </g>
                <path class="st4" d="M134.386,105.256l-5.943,5.944c-0.344,0.344-0.811,0.538-1.299,0.538c-0.487,0-0.954-0.194-1.299-0.538 l-3.591-3.59c-0.019-0.019-0.032-0.041-0.05-0.061c-0.661,0.721-0.649,1.838,0.05,2.536l3.591,3.59 c0.344,0.344,0.812,0.538,1.299,0.538c0.488,0,0.954-0.194,1.299-0.538l5.943-5.944c0.699-0.699,0.711-1.816,0.05-2.536 C134.417,105.215,134.405,105.237,134.386,105.256z"/>
              </g>
            </g>
          </g>
        </g>
      </g>
    </g>
  </g>
</svg>