<?xml version="1.0" encoding="utf-8"?>
<svg version="1.1" id="Layer_1" xmlns="http://www.w3.org/2000/svg" viewBox="0 0 512 512">
  <g transform="matrix(1, 0, 0, 1, 5.0275, -25.3715)">
    <rect x="234.578" y="52.726" style="fill: rgb(147, 86, 53);" width="32.79" height="38.644"/>
    <rect x="250.972" y="52.726" style="fill: rgb(128, 64, 0);" width="16.394" height="38.644"/>
    <path style="fill: rgb(37, 94, 45);" d="M 270.294 158.115 L 270.294 83.753 L 231.65 83.753 L 231.65 158.115 C 231.65 185.859 222.652 212.857 206.004 235.052 L 199.329 243.953 C 182.681 266.148 173.683 293.146 173.683 320.89 L 173.683 470.59 C 173.683 492.364 191.335 510.015 213.109 510.015 L 288.836 510.015 C 310.611 510.015 328.262 492.363 328.262 470.59 L 328.262 320.891 C 328.262 293.147 319.264 266.149 302.615 243.954 L 295.941 235.054 C 279.292 212.857 270.294 185.862 270.294 158.115 Z"/>
    <path style="fill: rgb(29, 73, 33);" d="M 302.615 243.954 L 295.941 235.054 C 279.292 212.858 270.294 185.86 270.294 158.116 L 270.294 83.755 L 250.972 83.755 L 250.972 510.017 L 288.835 510.017 C 310.609 510.017 328.259 492.364 328.259 470.591 L 328.259 320.891 C 328.262 293.146 319.261 266.149 302.615 243.954 Z"/>
    <rect x="193.005" y="316.797" style="fill: rgb(252, 111, 88);" width="115.933" height="115.933"/>
    <rect x="250.972" y="316.797" style="fill: rgb(241, 84, 63);" width="57.967" height="115.933"/>
  </g>
</svg>