<svg xmlns="http://www.w3.org/2000/svg" viewBox="0 0 48 48"><defs><style>.cls-1{fill:#425b72;}.cls-2{fill:#db5669;}.cls-3{fill:#f26674;}.cls-4{fill:#6fabe6;}.cls-5{fill:#82bcf4;}.cls-6{fill:#dad7e5;}.cls-7{fill:#edebf2;}</style></defs><title>social media network</title><g id="social_media_network" data-name="social media network"><path class="cls-1" d="M41.5,25h-6a1,1,0,0,1,0-2h6A1,1,0,0,1,41.5,25Z"/><path class="cls-1" d="M16,17c-.57,0-.35.06-5.7-5.29a1,1,0,0,1,1.41-1.41l5,5A1,1,0,0,1,16,17Z"/><path class="cls-1" d="M12.5,25h-6a1,1,0,0,1,0-2h6A1,1,0,0,1,12.5,25Z"/><path class="cls-1" d="M8.81,40.19a1,1,0,0,1-.7-1.71l7-7a1,1,0,0,1,1.41,1.41C9,40.44,9.4,40.19,8.81,40.19Z"/><path class="cls-1" d="M23,43.5v-8a1,1,0,0,1,2,0v8A1,1,0,0,1,23,43.5Z"/><path class="cls-1" d="M37.33,38.33c-.57,0-.35.06-5.71-5.29A1,1,0,0,1,33,31.62l5,5A1,1,0,0,1,37.33,38.33Z"/><path class="cls-1" d="M23,12V5a1,1,0,0,1,2,0v7A1,1,0,0,1,23,12Z"/><path class="cls-1" d="M31.68,17.31a1,1,0,0,1-.7-1.7l6-6A1,1,0,0,1,38.39,11C31.79,17.62,32.26,17.31,31.68,17.31Z"/><path class="cls-2" d="M36,24A12,12,0,0,1,24,36C12.62,36,7.68,21.61,16.57,14.57A12,12,0,0,1,36,24Z"/><path class="cls-3" d="M36,24a12,12,0,0,1-2.57,7.43A12,12,0,0,1,16.57,14.57,12,12,0,0,1,36,24Z"/><circle class="cls-4" cx="24" cy="3" r="2"/><path class="cls-4" d="M26,45a2,2,0,1,1-2.82-1.82A2,2,0,0,1,26,45Z"/><path class="cls-5" d="M25.82,45.82a2,2,0,0,1-2.64-2.64A2,2,0,0,1,25.82,45.82Z"/><path class="cls-5" d="M25.82,3.82a2,2,0,0,1-2.64-2.64A2,2,0,0,1,25.82,3.82Z"/><path class="cls-4" d="M7,24a3,3,0,1,1-5-2.24A3,3,0,0,1,7,24Z"/><path class="cls-5" d="M7,24a1,1,0,0,1,0,.24A3,3,0,0,1,2,22a1,1,0,0,1,0-.24A3,3,0,0,1,7,24Z"/><circle class="cls-4" cx="44" cy="24" r="3"/><circle class="cls-4" cx="7" cy="41" r="3"/><circle class="cls-4" cx="39" cy="9" r="3"/><path class="cls-4" d="M44,40a4,4,0,1,1-5.64-3.64A4,4,0,0,1,44,40Z"/><path class="cls-5" d="M43.64,41.64a4,4,0,0,1-5.28-5.28A4,4,0,0,1,43.64,41.64Z"/><path class="cls-4" d="M13,8A5,5,0,1,1,5.61,3.61,5,5,0,0,1,13,8Z"/><path class="cls-5" d="M12.39,10.39A5,5,0,0,1,5.61,3.61,5,5,0,0,1,12.39,10.39Z"/><path class="cls-6" d="M29.12,25.6c-.23.19.25,0-7.33,3.21A2,2,0,0,1,19,27V21a2,2,0,0,1,2.6-1.91l7.12,3.05A2,2,0,0,1,29.12,25.6Z"/><path class="cls-7" d="M29.12,25.6A7.93,7.93,0,0,1,19.26,20a2,2,0,0,1,2.34-.92l7.12,3.05A2,2,0,0,1,29.12,25.6Z"/><path class="cls-5" d="M47,24a1,1,0,0,1,0,.24A3,3,0,0,1,42,22a1,1,0,0,1,0-.24A3,3,0,0,1,47,24Z"/><path class="cls-5" d="M42,9a1,1,0,0,1,0,.24A3,3,0,0,1,37,7a1,1,0,0,1,0-.24A3,3,0,0,1,42,9Z"/><path class="cls-5" d="M10,41a1,1,0,0,1,0,.24A3,3,0,0,1,5,39a1,1,0,0,1,0-.24A3,3,0,0,1,10,41Z"/></g></svg>