<?xml version="1.0" encoding="iso-8859-1"?>
<!-- Uploaded to: SVG Repo, www.svgrepo.com, Generator: SVG Repo Mixer Tools -->
<svg version="1.1" id="Layer_1" xmlns="http://www.w3.org/2000/svg" xmlns:xlink="http://www.w3.org/1999/xlink" 
	 viewBox="0 0 512 512" xml:space="preserve">
<circle style="fill:#E1E5EA;" cx="256" cy="256" r="256"/>
<path style="fill:#FFFFFF;" d="M355.984,456.128h-200c-6.6,0-12-5.4-12-12v-376c0-6.6,5.4-12,12-12h200c6.6,0,12,5.4,12,12v376
	C367.984,450.728,362.584,456.128,355.984,456.128z"/>
<rect x="155.984" y="88.16" width="200" height="320"/>
<g>
	<path style="fill:#999999;" d="M279.776,76.128h-48c-2.2,0-4-1.8-4-4l0,0c0-2.2,1.8-4,4-4h48c2.2,0,4,1.8,4,4l0,0
		C283.776,74.328,281.976,76.128,279.776,76.128z"/>
	<path style="fill:#999999;" d="M279.984,432.128h-48c-2.2,0-4-1.8-4-4l0,0c0-2.2,1.8-4,4-4h48c2.2,0,4,1.8,4,4l0,0
		C283.984,430.328,282.184,432.128,279.984,432.128z"/>
</g>
<g>
	<rect x="180" y="116.712" style="fill:#8AD5DD;" width="152" height="77.56"/>
	<rect x="180" y="230.952" style="fill:#8AD5DD;" width="152" height="8"/>
</g>
<rect x="180" y="257.44" style="fill:#FFFFFF;" width="122.04" height="8"/>
<rect x="180" y="283.952" style="fill:#8AD5DD;" width="152" height="8"/>
<rect x="180" y="310.448" style="fill:#FFFFFF;" width="122.04" height="8"/>
<rect x="180" y="336.96" style="fill:#8AD5DD;" width="152" height="8"/>
<rect x="180" y="363.44" style="fill:#FFFFFF;" width="122.04" height="8"/>
</svg>