<svg id="Layer_1" data-name="Layer 1" xmlns="http://www.w3.org/2000/svg" viewBox="0 0 64 64"><path d="M47.7,59.55h-33a4,4,0,0,1-4-4V8.42a4,4,0,0,1,4-4H39.9a.75.75,0,0,1,0,1.5H14.73a2.48,2.48,0,0,0-2.48,2.47V55.58a2.48,2.48,0,0,0,2.48,2.47h33a2.48,2.48,0,0,0,2.47-2.47.75.75,0,0,1,1.5,0A4,4,0,0,1,47.7,59.55Z"/><path d="M50.92,39.14a.76.76,0,0,1-.75-.75V35a.75.75,0,0,1,1.5,0v3.44A.75.75,0,0,1,50.92,39.14Z"/><path d="M50.92,21.57a.75.75,0,0,1-.75-.75v-4.6a.75.75,0,0,1,1.5,0v4.6A.74.74,0,0,1,50.92,21.57Z"/><path d="M50.92,17H42.07a2.91,2.91,0,0,1-2.92-2.91V5.2a.75.75,0,0,1,1.28-.53l11,11A.75.75,0,0,1,50.92,17ZM40.65,7v7.05a1.42,1.42,0,0,0,1.42,1.41h7Z"/><path d="M4.63,59.55a.75.75,0,0,1-.69-.46l-2.63-6.3a.72.72,0,0,1-.06-.29V7.84A3.39,3.39,0,1,1,8,7.84V52.5a.72.72,0,0,1-.06.29l-2.63,6.3A.75.75,0,0,1,4.63,59.55Zm-1.88-7.2,1.88,4.5,1.89-4.5V7.84a1.89,1.89,0,1,0-3.77,0Zm4.52.15h0Z"/><path d="M7.27,53.25H2a.75.75,0,0,1,0-1.5H7.27a.75.75,0,0,1,0,1.5Z"/><path d="M7.27,11.32H2a.75.75,0,0,1,0-1.5H7.27a.75.75,0,0,1,0,1.5Z"/><path d="M7.27,14.69H2a.75.75,0,0,1,0-1.5H7.27a.75.75,0,1,1,0,1.5Z"/><path d="M59.67,56.33H35.52a3.09,3.09,0,0,1-3.08-3.09V40.72a3.08,3.08,0,0,1,3.08-3.08H59.67a3.08,3.08,0,0,1,3.08,3.08V53.24A3.09,3.09,0,0,1,59.67,56.33ZM35.52,39.14a1.58,1.58,0,0,0-1.58,1.58V53.24a1.59,1.59,0,0,0,1.58,1.59H59.67a1.59,1.59,0,0,0,1.58-1.59V40.72a1.58,1.58,0,0,0-1.58-1.58Z"/><path d="M47.59,49.67a.73.73,0,0,1-.44-.15l-13.6-9.94a.75.75,0,1,1,.88-1.21L47.59,48l13.17-9.62a.74.74,0,0,1,1.05.16.76.76,0,0,1-.16,1L48,49.52A.76.76,0,0,1,47.59,49.67Z"/><path d="M61.25,55.78a.71.71,0,0,1-.44-.15l-11-8a.75.75,0,1,1,.88-1.21l11,8a.75.75,0,0,1-.44,1.36Z"/><path d="M34,55.74a.77.77,0,0,1-.61-.31.75.75,0,0,1,.17-1l11-8a.75.75,0,0,1,.89,1.21l-11,8A.79.79,0,0,1,34,55.74Z"/><path d="M55.6,35.7H37.55a3.26,3.26,0,0,1-3.27-3.27V23.35a3.27,3.27,0,0,1,3.27-3.28H55.6a3.28,3.28,0,0,1,3.27,3.28v9.08A3.27,3.27,0,0,1,55.6,35.7ZM37.55,21.57a1.78,1.78,0,0,0-1.77,1.78v9.08a1.77,1.77,0,0,0,1.77,1.77H55.6a1.77,1.77,0,0,0,1.77-1.77V23.35a1.78,1.78,0,0,0-1.77-1.78Z"/><path d="M42.64,31.05a3.49,3.49,0,1,1,3.48-3.49A3.49,3.49,0,0,1,42.64,31.05Zm0-5.47a2,2,0,1,0,2,2A2,2,0,0,0,42.64,25.58Z"/><path d="M47.29,35.7a.75.75,0,0,1-.75-.75,3.91,3.91,0,0,0-7.81,0,.75.75,0,0,1-1.5,0A5.41,5.41,0,0,1,48,35,.74.74,0,0,1,47.29,35.7Z"/><path d="M51.79,27.15H49.42a.75.75,0,0,1,0-1.5h2.37a.75.75,0,0,1,0,1.5Z"/><path d="M53.72,30.13h-4.3a.75.75,0,0,1,0-1.5h4.3a.75.75,0,0,1,0,1.5Z"/><path d="M27,30H17a.75.75,0,0,1,0-1.5H27A.75.75,0,1,1,27,30Z"/><path d="M27,20.57H17a.75.75,0,1,1,0-1.5H27a.75.75,0,0,1,0,1.5Z"/><path d="M26.74,39.83H17a.75.75,0,0,1,0-1.5h9.76a.75.75,0,0,1,0,1.5Z"/><path d="M26.74,49.68H17a.75.75,0,1,1,0-1.5h9.76a.75.75,0,1,1,0,1.5Z"/></svg>