<svg xmlns="http://www.w3.org/2000/svg" viewBox="0 0 48 48"><title>marketing</title><g id="marketing"><path d="M36.57,35.9A.94.94,0,0,0,37,36a1,1,0,0,0,.54-.16A1,1,0,0,0,38,35V25.9a5,5,0,0,0,0-9.8V7a1,1,0,0,0-.46-.84,1,1,0,0,0-1-.06L18.7,14.54A2.94,2.94,0,0,0,17,14H13a7,7,0,0,0-7,7,7,7,0,0,0,4.61,6.55l3,11.86A3.41,3.41,0,0,0,16.89,42H22a3,3,0,0,0,2.11-.87A3,3,0,0,0,25,38.72a3,3,0,0,0-1-1.95A3.14,3.14,0,0,0,21.89,36a1.42,1.42,0,0,1-1.38-1.07l-1.86-7.42.05-.05ZM38,18.17a3,3,0,0,1,0,5.66Zm-18-2L36,8.58V33.42L20,25.87ZM8,21a5,5,0,0,1,5-5h4a1,1,0,0,1,1,1v8a1,1,0,0,1-.78,1A.73.73,0,0,1,17,26H13a4.57,4.57,0,0,1-1.29-.18A5,5,0,0,1,8,21ZM21.89,38a1.17,1.17,0,0,1,.77.29,1,1,0,0,1,.34.63,1,1,0,0,1-.31.79A.93.93,0,0,1,22,40H16.89a1.42,1.42,0,0,1-1.38-1.07L12.78,28h3.93l1.86,7.41A3.41,3.41,0,0,0,21.89,38Z"/><path d="M14,19h2a1,1,0,0,0,0-2H14a1,1,0,0,0,0,2Z"/><path d="M14,22h2a1,1,0,0,0,0-2H14a1,1,0,0,0,0,2Z"/></g></svg>